<svg width="109" height="26" viewBox="0 0 109 26" fill="none" xmlns="http://www.w3.org/2000/svg">
<path d="M15.0915 0C16.6303 2.64348 18.1824 5.27919 19.7045 7.93266C17.2442 12.2726 14.8195 16.6336 12.2759 20.9258C11.3 22.5734 10.3508 24.2365 9.38597 25.8897C6.25731 25.9086 3.12866 25.9074 0 25.903C0.0954806 25.6887 0.189851 25.4733 0.305316 25.2691C5.23145 16.8446 10.1765 8.43116 15.0915 0Z" fill="white"/>
<path d="M83.1703 6.49829C84.9001 9.72243 86.6287 12.9455 88.3562 16.1707C87.7467 16.1829 87.1372 16.1518 86.5288 16.1729C86.1202 15.4624 85.766 14.7218 85.3664 14.0068C83.8298 13.9613 82.2921 13.9924 80.7544 13.9891C80.3836 14.7252 79.9795 15.4424 79.5865 16.1651C78.9858 16.1596 78.3852 16.1774 77.7856 16.1718C79.5554 12.9332 81.3306 9.69689 83.1703 6.49829ZM81.5238 12.6102C82.5719 12.6246 83.6211 12.6224 84.6702 12.6313C84.1451 11.6542 83.6721 10.6495 83.1092 9.69356C82.5697 10.6606 82.0412 11.632 81.5238 12.6102Z" fill="white"/>
<path d="M89.3644 6.46045C91.9757 8.72978 94.5869 11.0002 97.166 13.3073C97.2371 11.2256 97.1571 9.1439 97.2204 7.0622C97.7789 7.0733 98.3373 7.08218 98.8958 7.09218C98.878 10.2985 98.8869 13.506 98.8836 16.7124C97.1682 15.2857 95.5207 13.7791 93.8264 12.3258C92.8838 11.5198 91.9501 10.7049 91.0497 9.85334C91.0275 11.9617 91.0597 14.0711 91.0142 16.1795C90.4591 16.1817 89.904 16.1673 89.3499 16.1717C89.3544 12.9343 89.3266 9.69791 89.3644 6.46045Z" fill="white"/>
<path d="M34.1731 16.1584C35.9772 12.9376 37.7347 9.69125 39.58 6.49487C41.2986 9.72234 43.0273 12.9454 44.7659 16.1617C44.1475 16.1762 43.5302 16.1751 42.9118 16.1628C42.5365 15.4423 42.1524 14.7262 41.7938 13.9968C40.2517 13.9768 38.7106 13.9934 37.1685 13.9934C36.7666 14.7206 36.4036 15.4712 35.9695 16.1806C35.3699 16.164 34.7715 16.1762 34.1731 16.1584ZM37.9179 12.619C38.9715 12.6145 40.0263 12.6289 41.081 12.6256C40.5503 11.6542 40.084 10.6483 39.5145 9.69791C38.9782 10.6705 38.4486 11.6442 37.9179 12.619Z" fill="white"/>
<path d="M59.8476 7.32969C60.7291 6.89559 61.7616 6.83897 62.7153 7.03104C63.5413 7.20535 64.2053 7.79266 64.7093 8.44326C64.2619 8.66975 63.8178 8.89957 63.3781 9.1405C62.7853 8.21345 61.3742 7.91812 60.5137 8.64089C60.0574 8.9673 60.0941 9.77111 60.6092 10.0198C61.7639 10.656 63.1683 10.7925 64.1919 11.673C65.2356 12.5578 65.1956 14.3264 64.2286 15.2546C63.1905 16.3071 61.5462 16.5358 60.1662 16.1417C59.0105 15.8497 58.1411 14.7872 57.9868 13.6192C58.5453 13.4971 59.1093 13.396 59.6744 13.3083C59.7421 13.8557 59.9497 14.4585 60.466 14.7339C61.2831 15.1724 62.4677 15.0625 63.0317 14.2709C63.4292 13.7324 63.3115 12.9053 62.7686 12.5112C61.634 11.7507 60.1274 11.704 59.1093 10.7459C58.5719 10.2885 58.3488 9.52464 58.5319 8.84628C58.6774 8.1546 59.2425 7.64278 59.8476 7.32969Z" fill="white"/>
<path d="M45.3055 7.12561C45.9395 7.04235 46.5801 7.07121 47.2174 7.07787C47.899 8.09263 48.5796 9.10739 49.2624 10.121C49.9807 9.1196 50.6791 8.10373 51.3874 7.09564C52.0413 7.07454 52.6953 7.06344 53.3492 7.08342C52.3122 8.52563 51.2686 9.9645 50.2294 11.4056C51.2875 13.0099 52.4421 14.5509 53.4758 16.1718C52.8529 16.1752 52.2301 16.1696 51.6072 16.1641C50.8145 15.0239 50.0274 13.8792 49.2347 12.739C48.4153 13.8836 47.5893 15.0227 46.7799 16.1741C46.1493 16.1863 45.5176 16.1774 44.887 16.1785C45.9839 14.5709 47.1385 13.0043 48.2787 11.4267C47.2984 9.98559 46.2992 8.55782 45.3055 7.12561Z" fill="white"/>
<path d="M54.8859 7.0855C55.4477 7.06885 56.0083 7.06996 56.5701 7.08217C56.5735 10.112 56.5712 13.1419 56.5712 16.1717C56.0006 16.1728 55.431 16.1717 54.8604 16.1717C54.8814 13.143 54.8715 10.1142 54.8859 7.0855Z" fill="white"/>
<path d="M71.2775 7.07788C72.7185 7.14005 74.2729 6.87915 75.6007 7.58526C76.8953 8.27805 77.1939 10.3331 76.0004 11.2635C76.752 11.5599 77.4792 12.1184 77.6769 12.9411C77.9933 13.9503 77.4348 15.0672 76.5522 15.5901C74.9435 16.4738 73.0483 16.0619 71.3019 16.1818C71.2475 13.1476 71.2819 10.1133 71.2775 7.07788ZM72.9495 8.38574C72.9528 9.25173 72.9506 10.1166 72.945 10.9815C73.5712 10.9559 74.2651 10.9937 74.7991 10.6073C75.3443 10.1222 75.3243 9.11739 74.7225 8.68551C74.1963 8.35244 73.5468 8.39018 72.9495 8.38574ZM72.9595 12.1705C72.9528 13.0532 72.9561 13.9369 72.9728 14.8196C73.8132 14.7752 74.7181 14.9306 75.493 14.5143C76.1803 14.1768 76.3068 13.0732 75.6684 12.6224C74.8991 12.0251 73.8665 12.1894 72.9595 12.1705Z" fill="white"/>
<path d="M100.836 7.07784C101.396 7.0734 101.956 7.07562 102.516 7.07673C102.518 8.27357 102.505 9.47152 102.531 10.6695C103.91 9.45597 105.315 8.27357 106.702 7.07007C107.468 7.07451 108.234 7.07784 109 7.07562C107.346 8.43233 105.705 9.80348 104.079 11.1935C105.678 12.8811 107.335 14.512 108.97 16.164C108.211 16.1563 107.45 16.2162 106.694 16.1285C105.393 14.8007 104.101 13.465 102.812 12.1261C102.717 12.2504 102.624 12.3748 102.532 12.4991C102.499 13.7237 102.528 14.9472 102.507 16.1718C101.944 16.1685 101.382 16.1829 100.82 16.1796C100.824 13.1464 100.832 10.1121 100.836 7.07784Z" fill="white"/>
<path d="M15.0925 16.1162C18.2323 16.1151 21.372 16.0929 24.5118 16.1451C26.3814 19.4048 28.311 22.6289 30.164 25.8974C27.0243 25.913 23.8856 25.9008 20.7459 25.8986C18.8773 22.6278 16.9255 19.407 15.0925 16.1162Z" fill="white"/>
</svg>
