<svg width="153" height="49" viewBox="0 0 153 49" fill="none" xmlns="http://www.w3.org/2000/svg">
<g clip-path="url(#clip0_8_1770)">
<path fill-rule="evenodd" clip-rule="evenodd" d="M3.07996 34.8227H10.6393C10.5201 34.3403 10.452 33.7785 10.452 33.1202C10.452 27.5642 14.9581 23.0581 20.514 23.0581C22.7614 23.0581 24.8385 23.7959 26.5127 25.0444C26.5127 24.9536 26.5127 24.8571 26.5127 24.7607C26.5127 19.2047 31.0187 14.6986 36.5747 14.6986C39.7471 14.6986 42.5734 16.1685 44.4178 18.4612C45.7912 17.7575 47.3462 17.3603 48.9976 17.3603C49.5481 17.3603 50.0929 17.4057 50.6207 17.4908C50.6207 17.4454 50.6207 17.4057 50.6207 17.3603C50.6207 11.8043 55.1268 7.29822 60.6828 7.29822C62.7429 7.29822 64.6554 7.91681 66.2501 8.97806C68.4521 3.96123 73.4632 0.459656 79.2916 0.459656C86.1358 0.459656 91.8507 5.28921 93.2184 11.7305C94.5578 11.0722 96.0617 10.7033 97.6507 10.7033C102.389 10.7033 106.356 13.9779 107.429 18.3818C108.763 17.7291 110.261 17.3603 111.85 17.3603C116.611 17.3603 120.601 20.6689 121.645 25.1068C123.075 22.8141 125.618 21.2875 128.518 21.2875C132.99 21.2875 136.611 24.9139 136.611 29.3802C136.611 31.4687 135.816 33.3755 134.517 34.8114H143.279C144.635 34.8114 145.742 35.918 145.742 37.2744C145.742 38.6307 144.635 39.7374 143.279 39.7374H3.07996C1.7236 39.7374 0.616943 38.6307 0.616943 37.2744C0.616943 35.918 1.7236 34.8114 3.07996 34.8114V34.8227ZM150.106 34.8227H150.174C151.531 34.8227 152.637 35.9294 152.637 37.2857C152.637 38.6421 151.531 39.7487 150.174 39.7487H150.106C148.75 39.7487 147.643 38.6421 147.643 37.2857C147.643 35.9294 148.75 34.8227 150.106 34.8227Z" fill="#DD9FCE"/>
<path fill-rule="evenodd" clip-rule="evenodd" d="M22.8521 42.887H25.6784C26.541 42.887 27.2447 42.1833 27.2447 41.3207C27.2447 40.4581 26.7112 39.7544 25.6784 39.7544H18.0112C18.1247 34.2949 22.5854 29.908 28.0676 29.908C31.24 29.908 34.0662 31.3778 35.9107 33.6706C37.2841 32.9669 38.839 32.5696 40.4905 32.5696C41.041 32.5696 41.5858 32.615 42.1136 32.7001C42.1136 32.6547 42.1136 32.615 42.1136 32.5696C42.1136 27.0136 46.6197 22.5076 52.1757 22.5076C54.2357 22.5076 56.1483 23.1262 57.743 24.1874C59.9449 19.1706 64.9561 15.669 70.7845 15.669C77.6287 15.669 83.3436 20.4986 84.7113 26.9399C86.0506 26.2815 87.5546 25.9127 89.1436 25.9127C93.8824 25.9127 97.8493 29.1872 98.9219 33.5911C100.256 32.9385 101.754 32.5696 103.343 32.5696C107.9 32.5696 111.748 35.6001 112.985 39.7544H71.9252C71.0626 39.7544 70.3589 40.4581 70.3589 41.3207C70.3589 42.1833 71.0853 42.887 71.9252 42.887H84.5978C86.2436 42.887 87.5886 44.2321 87.5886 45.8779C87.5886 47.5236 86.2436 48.8687 84.5978 48.8687H22.8521C21.2063 48.8687 19.8613 47.5236 19.8613 45.8779C19.8613 44.2321 21.2063 42.887 22.8521 42.887ZM93.3489 42.887C91.7031 42.887 90.3581 44.2321 90.3581 45.8779C90.3581 47.5236 91.7031 48.8687 93.3489 48.8687H93.4284C95.0741 48.8687 96.4192 47.5236 96.4192 45.8779C96.4192 44.2321 95.0741 42.887 93.4284 42.887H93.3489Z" fill="#F3CBEA"/>
</g>
<defs>
<clipPath id="clip0_8_1770">
<rect width="152.02" height="48.4034" fill="white" transform="translate(0.616943 0.459656)"/>
</clipPath>
</defs>
</svg>
