<svg width="139" height="78" viewBox="0 0 139 78" fill="none" xmlns="http://www.w3.org/2000/svg">
<g clip-path="url(#clip0_8_499)">
<path fill-rule="evenodd" clip-rule="evenodd" d="M23.29 25.74C13.5 25.74 5.56 33.68 5.56 43.47C5.56 46.77 6.46 49.87 8.04 52.52H4.34C1.95 52.52 0 54.47 0 56.86C0 59.25 1.95 61.2 4.34 61.2H134.49C136.88 61.2 138.83 59.25 138.83 56.86C138.83 54.47 136.88 52.52 134.49 52.52H128.69C130.27 49.87 131.17 46.78 131.17 43.47C131.17 33.68 123.23 25.74 113.44 25.74C110.65 25.74 108.01 26.39 105.66 27.53C105.16 22.91 101.24 19.31 96.48 19.31C94.31 19.31 92.31 20.06 90.74 21.31C86.82 8.95 75.25 0 61.59 0C45.71 0 32.66 12.09 31.14 27.57C28.77 26.4 26.11 25.74 23.29 25.74Z" fill="#DD9FCE"/>
<path fill-rule="evenodd" clip-rule="evenodd" d="M126.39 66.58H126.53C129.43 66.58 131.8 68.95 131.8 71.85C131.8 74.75 129.43 77.12 126.53 77.12H126.39C123.49 77.12 121.12 74.75 121.12 71.85C121.12 68.95 123.49 66.58 126.39 66.58ZM15.24 66.58H20.22C21.74 66.58 22.98 65.34 22.98 63.82C22.98 62.61 22.38 61.57 21.21 61.2H20.17C18.47 61.2 17.09 59.81 17.09 58.12C17.09 56.42 18.48 55.04 20.17 55.04H22.8C21.68 53.16 21.04 50.96 21.04 48.62C21.04 41.67 26.68 36.03 33.63 36.03C35.63 36.03 37.52 36.5 39.2 37.33C40.28 26.34 49.55 17.75 60.82 17.75C70.52 17.75 78.74 24.11 81.53 32.88C82.65 31.99 84.07 31.46 85.61 31.46C88.99 31.46 91.77 34.02 92.13 37.3C93.8 36.48 95.67 36.03 97.65 36.03C104.6 36.03 110.24 41.67 110.24 48.62C110.24 50.97 109.6 53.16 108.48 55.04H112.6C114.29 55.04 115.68 56.43 115.68 58.12C115.68 59.81 114.29 61.2 112.6 61.2H100.84C99.75 61.57 98.95 62.61 98.95 63.82C98.95 65.34 100.23 66.58 101.71 66.58H109.37C112.27 66.58 114.64 68.95 114.64 71.85C114.64 74.75 112.27 77.12 109.37 77.12H15.24C12.34 77.12 9.96997 74.75 9.96997 71.85C9.96997 68.95 12.34 66.58 15.24 66.58Z" fill="#F3CBE9"/>
</g>
<defs>
<clipPath id="clip0_8_499">
<rect width="138.84" height="77.11" fill="white"/>
</clipPath>
</defs>
</svg>
