<svg width="174" height="65" viewBox="0 0 174 65" fill="none" xmlns="http://www.w3.org/2000/svg">
<g clip-path="url(#clip0_8_509)">
<path fill-rule="evenodd" clip-rule="evenodd" d="M68.08 0C83.89 0 97.21 10.65 101.25 25.17C103.38 24.5 105.64 24.14 107.99 24.14C116.84 24.14 124.48 29.28 128.11 36.73C130.62 34.73 133.8 33.53 137.26 33.53C145.36 33.53 151.93 40.1 151.93 48.2C151.93 50.64 151.33 52.95 150.27 54.98H158.45C161 54.98 163.09 57.07 163.09 59.62C163.09 62.17 161 64.26 158.45 64.26H4.64C2.09 64.26 0 62.17 0 59.62C0 57.07 2.09 54.98 4.64 54.98H9.15C8.08 52.37 7.49 49.51 7.49 46.52C7.49 34.16 17.51 24.15 29.86 24.15C31.64 24.15 33.37 24.36 35.03 24.75C39.22 10.44 52.43 0 68.08 0ZM168.87 54.96H169C171.55 54.96 173.64 57.05 173.64 59.6C173.64 62.15 171.55 64.24 169 64.24H168.87C166.32 64.24 164.23 62.15 164.23 59.6C164.23 57.05 166.32 54.96 168.87 54.96Z" fill="#DD9FCE"/>
<path fill-rule="evenodd" clip-rule="evenodd" d="M137.15 64.24H25.4599C24.9499 62.59 24.6699 60.84 24.6699 59.02C24.6699 49.34 32.5199 41.49 42.1999 41.49C43.5899 41.49 44.9499 41.65 46.2499 41.96C49.5299 30.76 59.8799 22.58 72.1399 22.58C84.3999 22.58 94.9599 30.92 98.1299 42.3C99.7999 41.78 101.57 41.49 103.41 41.49C110.34 41.49 116.33 45.51 119.18 51.35C121.14 49.78 123.64 48.84 126.35 48.84C132.7 48.84 137.84 53.99 137.84 60.33C137.84 61.7 137.6 63.02 137.16 64.24H137.15Z" fill="#F3CBE9"/>
</g>
<defs>
<clipPath id="clip0_8_509">
<rect width="173.64" height="64.24" fill="white"/>
</clipPath>
</defs>
</svg>
