<svg width="411" height="90" viewBox="0 0 411 90" fill="none" xmlns="http://www.w3.org/2000/svg">
<g clip-path="url(#clip0_8_502)">
<path fill-rule="evenodd" clip-rule="evenodd" d="M6.15 60.88H16.67C16.55 60.12 16.48 59.34 16.48 58.55C16.48 50.47 23.03 43.91 31.12 43.91C34.11 43.91 36.88 44.81 39.2 46.34C40.23 42.53 43.71 39.73 47.85 39.73C49.19 39.73 50.47 40.03 51.61 40.55C54.45 29.1 64.79 20.61 77.12 20.61C86.17 20.61 94.15 25.18 98.88 32.15C101.53 29.28 105.32 27.48 109.53 27.48C113.74 27.48 117.47 29.25 120.11 32.07C122.33 14 137.74 0 156.42 0C176.63 0 193.01 16.38 193.01 36.59C193.01 37.38 192.98 38.17 192.93 38.96L193.04 38.94C193.52 32.7 198.74 27.78 205.1 27.78C211.78 27.78 217.2 33.2 217.2 39.88C217.2 40.68 217.12 41.46 216.97 42.21C217.75 41.96 218.57 41.82 219.44 41.82C223.81 41.82 227.36 45.36 227.36 49.74C227.36 50.52 227.25 51.27 227.04 51.98H244.09C243.9 51.32 243.79 50.61 243.79 49.89C243.79 46.49 246.06 43.62 249.17 42.72C249.33 37.25 253.81 32.87 259.32 32.87C261.61 32.87 263.72 33.63 265.42 34.9C268.57 30.93 273.43 28.39 278.89 28.39C279.5 28.39 280.1 28.42 280.69 28.48C285.12 14.73 298.02 4.79 313.24 4.79C328.46 4.79 341.3 14.69 345.76 28.39C346.4 28.29 347.06 28.23 347.74 28.23C353.37 28.23 358.14 31.94 359.72 37.05C360.9 36.75 362.14 36.59 363.42 36.59C370.52 36.59 376.46 41.49 378.07 48.09H378.5V48.45C379.46 48.22 380.46 48.09 381.49 48.09C388.42 48.09 394.03 53.71 394.03 60.63C394.03 60.71 394.03 60.79 394.03 60.87H404.37C407.75 60.87 410.52 63.64 410.52 67.02C410.52 70.4 407.75 73.17 404.37 73.17H6.15C2.77 73.17 0 70.4 0 67.02C0 63.64 2.77 60.87 6.15 60.87V60.88Z" fill="#DD9FCE"/>
<path fill-rule="evenodd" clip-rule="evenodd" d="M360.52 9.25H360.69C364.07 9.25 366.84 12.02 366.84 15.4C366.84 18.78 364.07 21.55 360.69 21.55H360.52C357.14 21.55 354.37 18.78 354.37 15.4C354.37 12.02 357.14 9.25 360.52 9.25Z" fill="#DD9FCE"/>
<path fill-rule="evenodd" clip-rule="evenodd" d="M372.17 24.4301H372.29C374.64 24.4301 376.56 26.3501 376.56 28.7001C376.56 31.0501 374.64 32.9701 372.29 32.9701H372.17C369.82 32.9701 367.9 31.0501 367.9 28.7001C367.9 26.3501 369.82 24.4301 372.17 24.4301Z" fill="#DD9FCE"/>
<path fill-rule="evenodd" clip-rule="evenodd" d="M273.21 12.8199H273.33C275.68 12.8199 277.6 14.7399 277.6 17.0899C277.6 19.4399 275.68 21.3599 273.33 21.3599H273.21C270.86 21.3599 268.94 19.4399 268.94 17.0899C268.94 14.7399 270.86 12.8199 273.21 12.8199Z" fill="#DD9FCE"/>
<path fill-rule="evenodd" clip-rule="evenodd" d="M247.4 59.3899C244.65 60.1899 242.65 62.7199 242.65 65.7199C242.65 66.3599 242.74 66.9799 242.91 67.5699H227.86C228.04 66.9399 228.14 66.2799 228.14 65.5899C228.14 61.7299 225.01 58.5999 221.15 58.5999C220.39 58.5999 219.66 58.7199 218.97 58.9499C219.1 58.2799 219.17 57.5999 219.17 56.8899C219.17 50.9899 214.39 46.2099 208.49 46.2099C202.59 46.2099 198.26 50.5499 197.84 56.0599L197.74 56.0799C197.78 55.3899 197.81 54.6899 197.81 53.9899C197.81 47.9399 196.15 42.2799 193.25 37.4399C193.15 37.9299 193.08 38.4399 193.04 38.9499L192.93 38.9699C192.97 38.3299 193 37.6799 193 37.0299C187.31 27.8299 177.12 21.6899 165.51 21.6899C149.02 21.6899 135.42 34.0499 133.45 50.0099C131.12 47.5099 127.79 45.9499 124.11 45.9499C120.43 45.9499 117.05 47.5399 114.71 50.0699C110.54 43.9199 103.49 39.8899 95.5 39.8899C84.62 39.8899 75.48 47.3799 72.98 57.4899C71.97 57.0199 70.85 56.7599 69.66 56.7599C66.01 56.7599 62.94 59.2299 62.02 62.5999C59.98 61.2399 57.52 60.4499 54.89 60.4499C47.82 60.4499 42.07 66.1299 41.97 73.1799H166.97C168.49 73.1799 169.73 74.4199 169.73 75.9399C169.73 77.4599 165.49 78.6999 166.97 78.6999H159.31C156.41 78.6999 154.04 81.0699 154.04 83.9699C154.04 86.8699 156.41 89.2399 159.31 89.2399H349.48C352.38 89.2399 354.75 86.8699 354.75 83.9699C354.75 81.0699 352.38 78.6999 349.48 78.6999H338.7C337.18 78.6999 335.94 77.4599 335.94 75.9399C335.94 74.4199 340.53 73.1799 338.7 73.1799H375.08C374.13 68.0299 369.61 64.1399 364.19 64.1399C363.28 64.1399 362.4 64.2499 361.55 64.4599V64.1399H361.17C359.75 58.3099 354.5 53.9899 348.23 53.9899C347.1 53.9899 346.01 54.1299 344.96 54.3899C343.56 49.8799 339.35 46.5999 334.38 46.5999C333.79 46.5999 333.2 46.6499 332.64 46.7399C328.7 34.6499 317.34 25.8999 303.93 25.8999C290.52 25.8999 279.11 34.6799 275.19 46.8099C274.67 46.7599 274.14 46.7299 273.6 46.7299C268.78 46.7299 264.49 48.9799 261.71 52.4799C260.21 51.3499 258.35 50.6899 256.33 50.6899C251.47 50.6899 247.51 54.5599 247.37 59.3899H247.4ZM142.3 78.7099C145.2 78.7099 147.57 81.0799 147.57 83.9799C147.57 86.8799 145.2 89.2499 142.3 89.2499H142.16C139.26 89.2499 136.89 86.8799 136.89 83.9799C136.89 81.0799 139.26 78.7099 142.16 78.7099H142.3Z" fill="#F3CBE9"/>
</g>
<defs>
<clipPath id="clip0_8_502">
<rect width="410.52" height="89.24" fill="white"/>
</clipPath>
</defs>
</svg>
