<svg width="80" height="39" viewBox="0 0 80 39" fill="none" xmlns="http://www.w3.org/2000/svg">
<g clip-path="url(#clip0_8_527)">
<path fill-rule="evenodd" clip-rule="evenodd" d="M18.3 11.4C16.9 10.1 15.1 9.39996 13.2 9.39996C9.79997 9.39996 6.79997 11.7 5.89997 14.9L5.79367 14.8178C5.19998 16.5125 5.20208 18.3055 5.79998 19.8999H5.79996C6.79996 23.0999 9.79996 25.3999 13.2 25.3999C15 25.3999 16.5 24.8999 17.7 24.0999L17.7 24.1C19.1 23.2 20 21.7 20.3 20.1H13.2V15H25.7C25.8 15.9 25.9 16.8 25.9 17.7C25.9 21.7 24.5 25.1 22 27.4H21.9999C19.7999 29.3999 16.7999 30.5999 13.2 30.5999C8.19996 30.5999 3.69996 27.7999 1.39996 23.2999V23.2999C-0.500024 19.4999 -0.50002 15.0999 1.39998 11.3999H1.54942C3.76837 6.95849 8.33713 4.19996 13.3 4.19996C16.5 4.09996 19.7 5.39996 22.1 7.59996L18.3 11.4ZM37.8 19.7V29H34.8V6H42.6C44.5 6 46.3 6.7 47.7 8C49.1 9.2 49.8 11 49.8 12.9C49.8 14.8 49.1 16.5 47.7 17.8C46.3 19.1 44.6 19.8 42.6 19.8L37.8 19.7ZM37.8 8.8V16.8H42.8C43.9 16.8 45 16.4 45.7 15.6C47.3 14.1 47.3 11.6 45.8 10.1L45.7 10C44.9 9.2 43.9 8.7 42.8 8.8H37.8ZM56.7 12.8C58.9 12.8 60.6 13.4 61.9 14.6C63.2 15.8 63.8 17.4 63.8 19.4V29H61V26.8H60.9C59.7 28.6 58 29.5 56 29.5C54.3 29.5 52.8 29 51.6 28C50.5 27 49.8 25.6 49.8 24.1C49.8 22.5 50.4 21.2001 51.6 20.2001C52.8 19.2 54.5 18.8 56.5 18.8C58.3 18.8 59.7 19.1 60.8 19.8V19.1C60.8 18.1 60.4 17.1 59.6 16.5C58.8 15.8 57.8 15.4 56.7 15.4C55 15.4 53.7 16.1 52.8 17.5L50.2 15.9C51.8 13.8 53.9 12.8 56.7 12.8ZM52.9 24.2001C52.9 25 53.3 25.7 53.9 26.1C54.6 26.6 55.4 26.9 56.2 26.9C57.4 26.9 58.6 26.4 59.5 25.5C60.5 24.6 61 23.5 61 22.3C60.1 21.6 58.8 21.2001 57.1 21.2001C55.9 21.2001 54.9 21.5 54.1 22.1C53.3 22.6 52.9 23.3 52.9 24.2001ZM79.9563 13.4L80 13.3V13.4H79.9563ZM79.9563 13.4L70.1 36H67.1L70.8 28.1L64.3 13.4H67.5L72.2 24.7001H72.3L76.9 13.4H79.9563Z" fill="white"/>
</g>
<defs>
<clipPath id="clip0_8_527">
<rect width="80" height="38.1" fill="white"/>
</clipPath>
</defs>
</svg>
