<svg width="141" height="25" viewBox="0 0 141 25" fill="none" xmlns="http://www.w3.org/2000/svg">
<path d="M32.7064 18.2766V6.53623H36.5689V10.4985H40.1881V6.53623H44.0568V18.2766H40.1881V13.7215H36.5689V18.2766H32.7064Z" fill="white"/>
<path d="M50.1686 9.45338H51.1702C51.8909 9.45338 52.4182 9.52823 52.7551 9.67798C53.0047 9.78718 53.2075 9.94945 53.3853 10.1928C53.5476 10.433 53.6786 10.7357 53.7753 11.1164C53.8627 11.4939 53.9095 11.8932 53.9095 12.3143C53.9095 13.0007 53.8159 13.5748 53.6131 14.0397C53.4165 14.5046 53.1326 14.8384 52.7676 15.0443C52.4025 15.2533 51.8597 15.3532 51.1421 15.3532L50.1686 15.3595V9.45338ZM51.66 18.2766C52.571 18.2766 53.3261 18.2017 53.9438 18.0364C54.5647 17.8773 55.0701 17.6651 55.457 17.4124C55.8501 17.1534 56.2058 16.804 56.5334 16.3703C56.8578 15.9211 57.1417 15.3564 57.3632 14.6637C57.591 13.9742 57.7002 13.1973 57.7002 12.3175C57.7002 11.0258 57.4538 9.93385 56.9546 9.02282C56.4492 8.13051 55.7628 7.48471 54.8861 7.10408C54.0125 6.72345 52.9704 6.53623 51.7598 6.53623H46.3904V18.2766H51.66Z" fill="white"/>
<path d="M59.4695 18.2766V6.53623H68.6297V9.43157H63.282V11.3129H67.5595V14.1302H63.282V18.2766H59.4695Z" fill="white"/>
<path d="M81.5648 11.0259H77.9176C77.8489 10.4424 77.6368 9.98074 77.2842 9.65002C76.9285 9.32555 76.4823 9.16643 75.9332 9.16643C75.25 9.16643 74.6946 9.4316 74.2672 9.95575C73.8366 10.4861 73.6214 11.3441 73.6214 12.5235C73.6214 13.3471 73.7181 13.9648 73.8959 14.386C74.08 14.8197 74.339 15.1317 74.6603 15.3407C74.991 15.5498 75.3935 15.6466 75.8896 15.6466C76.4824 15.6466 76.9567 15.4967 77.303 15.1535C77.6586 14.8322 77.8645 14.3518 77.9332 13.7091H81.6459C81.5648 14.4391 81.4181 15.0506 81.206 15.5498C81.0032 16.0459 80.6413 16.5388 80.1515 17.0349C79.6554 17.5372 79.0626 17.9241 78.3794 18.1924C77.6961 18.4638 76.9067 18.5918 76.0019 18.5918C75.1096 18.5918 74.2766 18.4639 73.5247 18.2018C72.7634 17.9335 72.1207 17.5528 71.609 17.0754C71.088 16.5794 70.6824 16.024 70.3923 15.3969C69.9742 14.514 69.7776 13.5437 69.7776 12.4611C69.7776 11.5563 69.9242 10.6983 70.2206 9.91205C70.517 9.13206 70.9257 8.46748 71.4468 7.93085C71.9709 7.39734 72.5419 6.99805 73.1783 6.72973C73.9833 6.38654 74.8694 6.2212 75.8522 6.2212C76.7071 6.2212 77.4995 6.34591 78.2482 6.59862C78.9939 6.85134 79.6055 7.21955 80.0828 7.70938C80.5664 8.19921 80.9377 8.76078 81.1966 9.40037C81.3838 9.84653 81.5024 10.3863 81.5648 11.0259Z" fill="white"/>
<path d="M93.9355 9.17888C94.4815 9.17888 94.8341 9.20379 95.0088 9.25371C95.2334 9.31923 95.4206 9.44714 95.5547 9.61562C95.692 9.79034 95.7638 9.99318 95.7638 10.2272C95.7638 10.5267 95.6453 10.7731 95.4175 10.9603C95.1742 11.1569 94.7592 11.2474 94.1633 11.2474H92.7094V9.17888H93.9355ZM94.9059 18.2766C95.82 18.2766 96.4627 18.2329 96.8402 18.1518C97.2115 18.0644 97.5953 17.9272 97.9852 17.7463C98.3659 17.5466 98.6591 17.3594 98.8525 17.1535C99.1521 16.8758 99.3736 16.5388 99.5358 16.1332C99.698 15.7245 99.7792 15.2627 99.7792 14.7667C99.7792 14.0584 99.6045 13.475 99.2488 13.0007C98.8931 12.5234 98.4157 12.2083 97.8136 12.0367C98.8338 11.394 99.3424 10.5641 99.3424 9.55326C99.3424 8.50807 98.8931 7.70932 98.0039 7.16645C97.3175 6.74837 96.2474 6.53623 94.7966 6.53623H88.9717V18.2766H94.9059ZM94.285 13.3596C95.0494 13.3596 95.5455 13.4532 95.7951 13.6497C96.0259 13.84 96.1507 14.1021 96.1507 14.4547C96.1507 14.8103 96.0259 15.0911 95.7732 15.2877C95.5329 15.4967 95.0306 15.5841 94.285 15.5841H92.7094V13.3596H94.285Z" fill="white"/>
<path d="M108.262 14.3299H105.807L107.017 10.0586L108.262 14.3299ZM104.652 18.2766L105.099 16.7354H108.942L109.392 18.2766H113.232L109.02 6.53623H105.099L100.884 18.2766H104.652Z" fill="white"/>
<path d="M114.855 18.2766V6.53623H118.452L122.511 12.823V6.53623H126.211V18.2766H122.536L118.564 12.1459V18.2766H114.855Z" fill="white"/>
<path d="M128.785 18.2766V6.53623H132.526V10.4081L136.018 6.53623H140.554L136.251 10.9572L141 18.2766H136.376L133.553 13.5998L132.526 14.6138V18.2766H128.785Z" fill="white"/>
<path d="M0 -4.86624e-06H24.813V24.813H0V-4.86624e-06Z" fill="#9A9999"/>
<path d="M4.3429 4.34295H20.4731V20.4731H4.3429V4.34295Z" fill="white"/>
<path d="M11.1663 -4.51278e-06H13.6466V24.813H11.1663V-4.51278e-06Z" fill="white"/>
<path d="M0 11.1693H24.813V13.6497H0V11.1693Z" fill="white"/>
<path d="M8.68591 8.68587H16.1301V16.1301H8.68591V8.68587Z" fill="#9A9999"/>
</svg>
