<svg width="157" height="32" viewBox="0 0 157 32" fill="none" xmlns="http://www.w3.org/2000/svg">
<path d="M28.5452 30.819H33.8527L38.0134 15.3125H32.7605L28.5452 30.819Z" fill="white"/>
<path d="M55.7563 30.819H61.0639L65.2246 15.3125H59.9171L55.7563 30.819Z" fill="white"/>
<path d="M83.0171 30.819H88.2726L92.3839 15.3125H87.0764L83.0171 30.819Z" fill="white"/>
<path d="M50.8129 20.6199H56.1205C56.8486 17.1353 54.6122 15.3669 49.4087 15.3669C43.373 15.3669 39.3163 18.3315 37.9121 23.379C36.7133 28.0598 39.1603 30.8709 44.8293 30.8709C50.5529 30.8709 53.9335 29.1026 55.3403 25.0953H50.0328C49.2526 26.8636 47.9004 27.7477 46.0281 27.7477C43.477 27.7477 42.4369 26.1874 43.217 23.2229C44.0491 20.1518 46.0281 18.4355 48.5765 18.4355C50.2408 18.4355 50.969 19.1636 50.8129 20.6199Z" fill="white"/>
<path d="M78.0759 20.6199H83.3835C84.1116 17.1353 81.8206 15.3669 76.6171 15.3669C70.6335 15.3669 66.5247 18.3315 65.1725 23.379C63.9243 28.0598 66.3687 30.8709 72.0403 30.8709C77.7119 30.8709 81.0925 29.1026 82.5488 25.0953H77.2438C76.5131 26.8636 75.1088 27.7477 73.2365 27.7477C70.688 27.7477 69.6479 26.1874 70.4774 23.2229C71.2602 20.1518 73.2365 18.4355 75.7849 18.4355C77.4518 18.4355 78.232 19.1636 78.0759 20.6199Z" fill="white"/>
<path fill-rule="evenodd" clip-rule="evenodd" d="M27.193 2.67155C23.7578 -2.11589 15.1737 -0.292976 8.09779 6.73086C1.02456 13.7521 -1.99457 23.379 1.38603 28.2158C2.55223 29.8343 4.28847 30.7079 6.3477 30.8892C6.30696 30.8833 6.26623 30.8773 6.22551 30.8709C7.62976 30.9229 8.77655 29.36 9.71271 27.2797C10.6489 25.1473 11.169 23.1709 11.637 21.296C12.3132 18.3315 12.3652 16.2511 12.0011 15.783C11.429 15.0523 10.1808 15.2109 8.72193 16.0431C7.99381 16.4592 7.05765 16.1991 8.15244 14.8469C9.29664 13.4946 13.7174 10.2675 15.2777 9.74738C17.0486 9.27929 19.025 9.95542 18.3489 11.8798C18.3087 11.9995 18.2273 12.2257 18.1149 12.5382C16.9092 15.889 12.1317 29.1661 16.3205 27.6437C16.2695 27.6819 16.2185 27.7199 16.1674 27.7575C17.6477 26.775 19.1205 25.5718 20.5332 24.1591C27.6091 17.1353 30.6282 7.45899 27.193 2.67155ZM21.7294 3.91976V3.76373C21.7294 3.34765 21.5734 3.0356 21.3134 2.77555C20.5332 1.94341 18.6609 2.41149 17.2046 3.81574C15.8004 5.27199 15.2777 7.09491 16.1619 7.92706C16.9446 8.70459 18.8169 8.1845 20.2212 6.83226C21.1573 5.8961 21.6775 4.80391 21.7294 3.91976Z" fill="white"/>
<path d="M100.344 28.3717L101.54 23.899H104.453V21.5065H102.216L103.256 17.7073H104.453V15.3643H100.497L96.3887 30.8708H104.453V28.3717H100.344ZM104.453 23.899H105.025C107.68 23.899 108.928 24.367 108.408 26.1874C107.992 27.7996 106.692 28.3717 104.453 28.3717V30.8708C106.64 30.8708 108.252 30.6627 109.864 29.568C110.956 28.8398 111.739 27.7476 112.051 26.4994C112.621 24.367 111.685 22.9082 109.24 22.5987C111.529 22.1827 112.987 20.9838 113.453 19.1115C113.869 17.7073 113.505 16.6671 112.517 15.991C111.685 15.4189 110.28 15.3643 108.408 15.3643H104.453V17.7073H106.484C108.98 17.7073 110.124 18.0193 109.76 19.5796C109.292 21.0879 107.94 21.5065 105.391 21.5065H104.453V23.899Z" fill="white"/>
<path d="M119.02 19.998V21.9197C118.604 22.1304 118.24 22.4944 118.084 23.0145H114.964C115.481 21.5063 116.888 20.4635 119.02 19.998ZM119.02 29.1022C118.656 29.2062 118.24 29.2582 117.824 29.2582C116.42 29.2582 115.796 28.6835 116.108 27.6433C116.42 26.4471 117.356 26.0311 119.02 25.875V24.0547C115.429 24.3147 113.453 25.2509 112.829 27.5913C112.257 29.7237 113.611 31.1305 116.42 31.1305C117.356 31.1305 118.24 30.9745 119.02 30.6625V29.1022ZM122.04 25.875L121.987 26.0311C121.571 27.6433 120.477 28.7381 119.02 29.1022V30.6625C119.801 30.3478 120.477 29.9343 121.101 29.3622L120.841 30.8705H123.964C124.12 30.1398 124.276 29.3076 124.484 28.4755L125.68 24.1067C125.784 23.7426 125.836 23.3786 125.836 23.0145V22.4944C125.732 20.7235 124.224 19.7874 121.415 19.7874C120.529 19.7874 119.749 19.8914 119.02 19.998V21.9197C119.488 21.6623 120.061 21.5583 120.791 21.5583C122.401 21.5583 123.028 22.2838 122.557 23.8467L122.508 24.0027H120.841C120.219 24.0027 119.592 24.0547 119.02 24.0547V25.875L122.04 25.875Z" fill="white"/>
<path d="M126.772 30.8705H129.948L131.456 25.3029C131.976 23.3266 133.796 21.9197 135.721 21.9197C137.593 21.9197 138.272 23.0145 137.648 25.1989L136.137 30.8705H139.312L141.08 24.2627C141.808 21.4542 140.404 19.7874 137.284 19.7874C135.253 19.7874 133.64 20.5155 132.236 21.9717L132.6 20.0474H129.428C129.115 21.7637 128.907 22.8065 128.801 23.2226L126.772 30.8705Z" fill="white"/>
<path d="M142.12 30.8709H145.243L146.804 25.0432L151.019 30.8709H155.336L150.548 24.6792L157 20.0478H152.995L147.012 24.3671L149.404 15.3669H146.283L142.12 30.8709Z" fill="white"/>
</svg>
