<svg width="1520" height="857" viewBox="0 0 1520 857" fill="none" xmlns="http://www.w3.org/2000/svg">
<g filter="url(#filter0_d_8_73)">
<path d="M1913.69 847.969L1213.59 186.486L801.696 619.133L1576.01 847.969H1913.69Z" fill="#AE78F2"/>
<path d="M1214.07 187.208L1297.89 325.568C1297.89 325.568 1297.89 325.809 1297.65 325.809L1228.72 315.943C1228.72 315.943 1228.48 316.183 1228.72 316.183L1397.08 469.944V470.185L1323.35 474.997C1323.11 474.997 1323.11 475.238 1323.35 475.238L1486.67 554.645L1541.19 589.295V589.535L1511.64 624.186V624.426L1590.9 673.995L1912.73 847.728C1912.97 847.728 1912.97 847.728 1912.97 847.487L1214.07 187.208Z" fill="#C689F5"/>
<path d="M1213.59 186.486L1298.13 325.809L1228.48 315.943L1397.32 469.944L1322.87 474.997L1268.35 564.51L1064.68 335.674L1213.59 186.486Z" fill="#AE78F2"/>
<path d="M729.644 0L1253.46 524.807L1451.84 634.052L1576.01 847.969H563.205L462.573 551.998L379.714 435.294L729.644 0Z" fill="#AE78F2"/>
<path d="M697.942 848.21L665.518 740.649C657.112 713.459 640.54 689.877 617.724 672.793L493.795 579.67L300.217 326.05L55.4815 650.414L38.6695 654.024L-71.0891 689.396L-222.878 848.21H697.942Z" fill="#C689F5"/>
<path d="M1357.69 678.808L1253.46 524.807L1079.57 375.618L1000.08 549.591L1198.7 668.942L1258.26 847.969L1466.49 844.359L1357.69 678.808Z" fill="#C689F5"/>
<path d="M52.1192 644.158L220.96 430.24C220.96 430.24 146.507 614.32 171.244 639.105C195.982 663.889 305.26 659.076 344.889 688.914C384.517 718.752 339.845 847.969 339.845 847.969H-226L-72.0498 683.861L52.1192 644.158Z" fill="#AE78F2"/>
<path d="M300.217 325.809L258.907 380.912C256.746 383.8 255.785 387.65 256.746 391.259L268.994 444.678C269.715 448.288 272.117 451.175 275.479 452.86C338.164 485.826 399.648 501.226 409.495 549.592L415.499 579.189C416.46 584.483 423.905 584.723 425.346 579.67L442.639 520.957C443.84 517.107 442.879 513.016 440.477 509.888L300.217 325.809Z" fill="#D49BFF"/>
<path opacity="0.37" d="M735.649 6.01575L1062.04 333.028C1063.48 334.471 1063.96 336.878 1063 339.043L1010.41 439.385C1010.17 439.866 1009.92 440.347 1009.44 440.588L913.856 531.785C912.175 533.47 911.695 536.117 913.136 538.282L925.865 557.532C928.026 560.661 925.865 564.992 922.022 565.232L879.512 568.842C875.669 569.082 873.747 573.414 875.669 576.542C877.83 579.911 875.429 584.483 871.586 584.483H812.504C811.783 584.483 811.063 584.723 810.582 584.964L741.653 615.764C736.849 617.93 732.286 612.155 735.649 608.064L790.168 541.892C791.128 540.688 791.609 539.245 791.128 537.801L772.875 446.603C772.155 443.475 774.556 440.588 777.919 440.588H842.765C846.608 440.588 849.01 436.497 847.088 433.128L795.211 336.396C792.569 331.343 798.814 326.531 802.897 330.14L897.524 414.841C901.847 418.691 908.092 413.638 905.21 408.584L822.11 262.765C821.63 261.802 820.669 261.08 819.709 260.599L744.055 230.28C739.011 228.355 740.212 220.895 745.736 220.655L848.529 216.805C850.211 216.805 851.892 217.527 852.852 218.97L895.603 281.293C898.485 285.383 904.97 283.218 904.73 278.165L900.887 214.639C900.887 212.714 899.686 211.27 898.005 210.308L786.565 156.889L701.064 118.87C698.902 117.907 697.701 115.26 698.182 112.854L727.002 8.42202C728.443 4.57199 733.007 3.36886 735.649 6.01575Z" fill="#D39BFF"/>
<path d="M1064.68 335.674L1253.46 524.807L1179.01 474.997L1208.79 579.429L1124.25 455.025L1074.53 504.835L1099.51 435.294L1064.68 335.674Z" fill="#AE78F2"/>
<path d="M1213.59 186.486L1124.25 275.999L1198.7 256.027L1228.48 315.943L1298.13 325.809L1213.59 186.486Z" fill="#AE78F2"/>
<path d="M1198.7 670.071L1029.86 567.065L940.515 847.969H1258.26L1198.7 670.071Z" fill="#CD94FA"/>
<path d="M1357.69 678.808L1387.48 783.24L1263.31 634.052L1307.98 788.294L1263.31 733.671L1258.26 847.969H1516.45L1357.69 678.808Z" fill="#AE78F2"/>
<path d="M1107.68 786.128L1110.56 831.365L1063 757.493L1071.41 831.365L1046.19 807.543L1020.97 828.959L1026.5 800.325L990.231 847.969H1169.16L1107.68 786.128Z" fill="#AE78F2"/>
<path d="M537.987 777.224L554.079 824.387L494.036 757.493L509.887 828.237L477.944 800.806L437.835 828.237L453.927 777.224L389.801 847.969H598.03L537.987 777.224Z" fill="#D298FF"/>
<path d="M104.957 848.209L62.2063 757.493L42.2721 827.275L7.44713 747.627L-27.1376 822.222L-42.0283 757.493L-101.591 827.275L-72.0498 683.861L-226 847.969L-217.114 848.209H104.957Z" fill="#C689F5"/>
</g>
<defs>
<filter id="filter0_d_8_73" x="-230" y="0" width="2147.69" height="856.21" filterUnits="userSpaceOnUse" color-interpolation-filters="sRGB">
<feFlood flood-opacity="0" result="BackgroundImageFix"/>
<feColorMatrix in="SourceAlpha" type="matrix" values="0 0 0 0 0 0 0 0 0 0 0 0 0 0 0 0 0 0 127 0" result="hardAlpha"/>
<feOffset dy="4"/>
<feGaussianBlur stdDeviation="2"/>
<feComposite in2="hardAlpha" operator="out"/>
<feColorMatrix type="matrix" values="0 0 0 0 0 0 0 0 0 0 0 0 0 0 0 0 0 0 0.25 0"/>
<feBlend mode="normal" in2="BackgroundImageFix" result="effect1_dropShadow_8_73"/>
<feBlend mode="normal" in="SourceGraphic" in2="effect1_dropShadow_8_73" result="shape"/>
</filter>
</defs>
</svg>
