<svg width="157" height="28" viewBox="0 0 157 28" fill="none" xmlns="http://www.w3.org/2000/svg">
<path d="M147.453 6.17505C148.403 6.17505 149.228 6.36672 149.928 6.75005C150.645 7.13338 151.195 7.65005 151.578 8.30005V6.35005H156.478V20.225C156.478 21.5417 156.228 22.725 155.728 23.775C155.228 24.8417 154.445 25.6917 153.378 26.3251C152.328 26.9584 150.995 27.2751 149.378 27.2751C147.211 27.2751 145.478 26.7667 144.178 25.75C142.878 24.7334 142.136 23.3501 141.953 21.6H146.778C146.878 22.0501 147.128 22.4 147.528 22.65C147.928 22.9 148.445 23.025 149.078 23.025C150.745 23.025 151.578 22.0917 151.578 20.225V18.425C151.195 19.075 150.645 19.5917 149.928 19.975C149.228 20.3584 148.403 20.55 147.453 20.55C146.336 20.55 145.32 20.2584 144.403 19.675C143.503 19.0917 142.786 18.2584 142.253 17.175C141.736 16.075 141.478 14.8001 141.478 13.35C141.478 11.9 141.736 10.6334 142.253 9.55005C142.786 8.46672 143.503 7.63338 144.403 7.05005C145.32 6.46672 146.336 6.17505 147.453 6.17505ZM151.578 13.35C151.578 12.4501 151.328 11.7417 150.828 11.225C150.345 10.7084 149.745 10.45 149.028 10.45C148.295 10.45 147.686 10.7084 147.203 11.225C146.72 11.725 146.478 12.4334 146.478 13.35C146.478 14.2501 146.72 14.9667 147.203 15.5C147.686 16.0167 148.295 16.275 149.028 16.275C149.745 16.275 150.345 16.0167 150.828 15.5C151.328 14.9834 151.578 14.2667 151.578 13.35Z" fill="white"/>
<path d="M134.314 6.2251C135.931 6.2251 137.214 6.76676 138.164 7.8501C139.114 8.91676 139.589 10.3668 139.589 12.2001V20.3751H134.689V12.8501C134.689 12.0501 134.481 11.4251 134.064 10.9751C133.648 10.5084 133.089 10.2751 132.389 10.2751C131.656 10.2751 131.081 10.5084 130.664 10.9751C130.248 11.4251 130.039 12.0501 130.039 12.8501V20.3751H125.139V6.3501H130.039V8.3501C130.473 7.71676 131.056 7.20843 131.789 6.8251C132.523 6.4251 133.364 6.2251 134.314 6.2251Z" fill="white"/>
<path d="M119.924 5.05C119.057 5.05 118.357 4.81667 117.824 4.35C117.307 3.86667 117.049 3.26667 117.049 2.55C117.049 1.81667 117.307 1.20833 117.824 0.725001C118.357 0.241667 119.057 0 119.924 0C120.774 0 121.457 0.241667 121.974 0.725001C122.507 1.20833 122.774 1.81667 122.774 2.55C122.774 3.26667 122.507 3.86667 121.974 4.35C121.457 4.81667 120.774 5.05 119.924 5.05ZM122.349 6.35V20.375H117.449V6.35H122.349Z" fill="white"/>
<path d="M110.037 20.375L106.162 14.625V20.375H101.262V1.875H106.162V11.85L110.037 6.35H115.912L110.387 13.4L116.012 20.375H110.037Z" fill="white"/>
<path d="M93.2987 6.2251C94.9153 6.2251 96.1987 6.76676 97.1487 7.8501C98.0987 8.91676 98.5737 10.3668 98.5737 12.2001V20.3751H93.6737V12.8501C93.6737 12.0501 93.4653 11.4251 93.0487 10.9751C92.632 10.5084 92.0737 10.2751 91.3737 10.2751C90.6403 10.2751 90.0653 10.5084 89.6487 10.9751C89.232 11.4251 89.0237 12.0501 89.0237 12.8501V20.3751H84.1237V6.3501H89.0237V8.3501C89.457 7.71676 90.0403 7.20843 90.7737 6.8251C91.507 6.4251 92.3487 6.2251 93.2987 6.2251Z" fill="white"/>
<path d="M66.3315 13.35C66.3315 11.9 66.5899 10.6334 67.1065 9.55005C67.6399 8.46672 68.3565 7.63338 69.2565 7.05005C70.1732 6.46672 71.1899 6.17505 72.3065 6.17505C73.2732 6.17505 74.1065 6.36672 74.8065 6.75005C75.5065 7.13338 76.0482 7.65005 76.4315 8.30005V6.35005H81.3315V20.375H76.4315V18.425C76.0482 19.075 75.4982 19.5917 74.7815 19.975C74.0815 20.3584 73.2565 20.55 72.3065 20.55C71.1899 20.55 70.1732 20.2584 69.2565 19.675C68.3565 19.0917 67.6399 18.2584 67.1065 17.175C66.5899 16.075 66.3315 14.8001 66.3315 13.35ZM76.4315 13.35C76.4315 12.4501 76.1815 11.7417 75.6815 11.225C75.1982 10.7084 74.5982 10.45 73.8815 10.45C73.1482 10.45 72.5399 10.7084 72.0565 11.225C71.5732 11.725 71.3315 12.4334 71.3315 13.35C71.3315 14.2501 71.5732 14.9667 72.0565 15.5C72.5399 16.0167 73.1482 16.275 73.8815 16.275C74.5982 16.275 75.1982 16.0167 75.6815 15.5C76.1815 14.9834 76.4315 14.2667 76.4315 13.35Z" fill="white"/>
<path d="M61.609 11.325C62.6423 11.5583 63.459 12.075 64.059 12.875C64.6757 13.6583 64.984 14.5583 64.984 15.575C64.984 17.075 64.4673 18.25 63.434 19.1C62.4007 19.95 60.9507 20.375 59.084 20.375H50.359V2.75H58.809C60.609 2.75 62.0173 3.15 63.034 3.95C64.0673 4.75 64.584 5.875 64.584 7.325C64.584 8.35833 64.309 9.225 63.759 9.925C63.2257 10.6083 62.509 11.075 61.609 11.325ZM55.259 9.75H57.734C58.9673 9.75 59.584 9.24167 59.584 8.225C59.584 7.175 58.9673 6.65 57.734 6.65H55.259V9.75ZM58.109 16.425C59.3423 16.425 59.959 15.9083 59.959 14.875C59.959 14.3417 59.7923 13.9333 59.459 13.65C59.1423 13.3667 58.684 13.225 58.084 13.225H55.259V16.425H58.109Z" fill="white"/>
<path d="M43.3264 16.2V20.375H41.2014C37.6181 20.375 35.8264 18.6 35.8264 15.05V10.425H34.1014V6.34995H35.8264V2.94995H40.7514V6.34995H43.3014V10.425H40.7514V15.125C40.7514 15.5083 40.8348 15.7833 41.0014 15.95C41.1848 16.1166 41.4848 16.2 41.9014 16.2H43.3264Z" fill="white"/>
<path d="M33.0462 13.2001C33.0462 13.5834 33.0212 13.9667 32.9712 14.35H23.6962C23.7462 15.1167 23.9545 15.6917 24.3212 16.0751C24.7045 16.4417 25.1879 16.625 25.7712 16.625C26.5879 16.625 27.1712 16.2584 27.5212 15.525H32.7462C32.5295 16.4917 32.1045 17.3584 31.4712 18.125C30.8545 18.875 30.0712 19.4667 29.1212 19.9C28.1712 20.3334 27.1212 20.55 25.9712 20.55C24.5879 20.55 23.3545 20.2584 22.2712 19.675C21.2045 19.0917 20.3629 18.2584 19.7462 17.175C19.1462 16.0917 18.8462 14.8167 18.8462 13.35C18.8462 11.8834 19.1462 10.6167 19.7462 9.55005C20.3462 8.46672 21.1795 7.63338 22.2462 7.05005C23.3295 6.46672 24.5712 6.17505 25.9712 6.17505C27.3545 6.17505 28.5795 6.45838 29.6462 7.02505C30.7129 7.59172 31.5462 8.40838 32.1462 9.47505C32.7462 10.525 33.0462 11.7667 33.0462 13.2001ZM28.0462 11.975C28.0462 11.375 27.8462 10.9084 27.4462 10.575C27.0462 10.225 26.5462 10.05 25.9462 10.05C25.3462 10.05 24.8545 10.2167 24.4712 10.55C24.0879 10.8667 23.8379 11.3417 23.7212 11.975H28.0462Z" fill="white"/>
<path d="M16.8549 20.375H11.9549L5.42991 10.525V20.375H0.529907V2.75H5.42991L11.9549 12.725V2.75H16.8549V20.375Z" fill="white"/>
</svg>
