<svg width="91" height="29" viewBox="0 0 91 29" fill="none" xmlns="http://www.w3.org/2000/svg">
<path d="M90.6929 8.41272C89.8669 6.051 87.6158 4.35507 84.9718 4.35507H84.9164C83.1976 4.35507 81.6486 5.07044 80.546 6.21885C79.4414 5.07044 77.8923 4.35507 76.1754 4.35507H76.1201C74.6092 4.35507 73.2281 4.90827 72.1674 5.82399V5.3585C72.1312 4.89491 71.7496 4.5306 71.2784 4.5306H67.2227C66.7267 4.5306 66.3261 4.9312 66.3261 5.42907V27.4533C66.3261 27.9512 66.7267 28.3518 67.2227 28.3518H71.2784C71.7305 28.3518 72.1025 28.0142 72.1617 27.5773L72.1598 11.7664C72.1594 11.7135 72.1619 11.6607 72.1674 11.6081C72.2323 10.9022 72.7492 10.3223 73.5658 10.2498H74.3135C74.655 10.2803 74.943 10.4005 75.17 10.5817C75.5229 10.8621 75.7195 11.2933 75.7195 11.7664L75.7347 27.4991C75.7347 27.997 76.1372 28.3994 76.6313 28.3994H80.687C81.1659 28.3994 81.555 28.0179 81.578 27.5429L81.5761 11.7454C81.5741 11.2265 81.8145 10.7572 82.2361 10.4787C82.444 10.3451 82.694 10.2555 82.982 10.2288H83.7298C84.6073 10.3051 85.1377 10.9709 85.1358 11.7454L85.151 27.4571C85.151 27.955 85.5536 28.3556 86.0476 28.3556H90.1034C90.5975 28.3556 90.9999 27.955 90.9999 27.4571V10.5588C90.9999 9.40658 90.8703 8.91633 90.6929 8.41272ZM63.2364 4.58797H60.9167V0.818387C60.9166 0.366257 60.5504 0 60.0982 0C60.0448 0 59.9933 0.00757065 59.9437 0.0171421C57.3722 0.722997 57.8872 4.28466 53.1925 4.58797H52.7365C52.6678 4.58797 52.603 4.59749 52.54 4.61085C52.1394 4.70056 51.838 5.05725 51.838 5.48461V9.54031C51.838 10.0344 52.2405 10.4369 52.7365 10.4369H55.1841L55.1803 27.6347C55.1803 28.125 55.5771 28.5218 56.0673 28.5218H60.0773C60.5656 28.5218 60.9625 28.125 60.9625 27.6347L60.9643 10.4369H63.2364C63.7305 10.4369 64.133 10.0344 64.133 9.54031V5.48461C64.133 4.99052 63.7305 4.58797 63.2364 4.58797Z" fill="white"/>
<path d="M48.6444 4.58789H44.5887C44.0946 4.58789 43.6939 4.99043 43.6939 5.48447V13.8707C43.6844 14.3896 43.2647 14.8055 42.7439 14.8055H41.0461C40.5196 14.8055 40.0942 14.3819 40.0942 13.8554L40.0789 5.48452C40.0789 4.99043 39.6764 4.58794 39.1823 4.58794H35.1266C34.6306 4.58794 34.23 4.99043 34.23 5.48452V14.6757C34.23 18.1668 36.7195 20.6563 40.2124 20.6563C40.2124 20.6563 42.8336 20.6563 42.9137 20.6716C43.3868 20.725 43.755 21.1217 43.755 21.6101C43.755 22.0928 43.3945 22.4877 42.9271 22.5468C42.9042 22.5506 42.8832 22.5563 42.8584 22.5602L36.9274 22.5812C36.4314 22.5812 36.0308 22.9836 36.0308 23.4777V27.5316C36.0308 28.0276 36.4314 28.4282 36.9274 28.4282H43.5585C47.0534 28.4282 49.541 25.9406 49.541 22.4476V5.48452C49.541 4.99043 49.1404 4.58789 48.6444 4.58789ZM9.38771 12.0193V14.5222C9.38771 15.0467 8.9623 15.4741 8.4377 15.4741L5.86422 15.476V10.4607H8.4377C8.9623 10.4607 9.38771 10.8842 9.38771 11.4107V12.0193ZM9.74445 4.58691H0.879439C0.392971 4.58691 0 4.98183 0 5.46635V9.44008C0 9.4477 0.00189266 9.45533 0.00189266 9.46295C0.00189266 9.48204 0 9.50113 0 9.51827V27.5039C0 27.9923 0.366257 28.391 0.820334 28.4024H4.95229C5.44638 28.4024 5.84887 28.0018 5.84887 27.5059L5.86417 21.3421H9.7444C12.9912 21.3421 15.2538 19.0891 15.2538 15.8289V10.1078C15.2538 6.84756 12.9913 4.58691 9.74445 4.58691ZM26.2155 21.5409V22.1742C26.2155 22.2258 26.208 22.2754 26.2003 22.323C26.1908 22.3678 26.178 22.4118 26.1622 22.4547C26.0362 22.8095 25.6814 23.067 25.2598 23.067H23.5715C23.045 23.067 22.6158 22.6664 22.6158 22.1742V21.4093C22.6158 21.3998 22.6138 21.3902 22.6138 21.3807L22.6158 19.3452V18.708L22.6177 18.7023C22.6196 18.212 23.045 17.8152 23.5715 17.8152H25.2598C25.7882 17.8152 26.2156 18.2139 26.2156 18.708L26.2155 21.5409ZM25.5708 4.61022H19.9431C19.4453 4.61022 19.0428 4.98794 19.0428 5.45148V7.02915C19.0428 7.03867 19.0447 7.05013 19.0447 7.05965C19.0447 7.07111 19.0427 7.08252 19.0427 7.09399V9.25541C19.0427 9.74572 19.4701 10.1463 19.9966 10.1463H25.3552C25.7788 10.2131 26.1145 10.5221 26.1622 11.0048V11.5275C26.1145 11.9872 25.7826 12.3229 25.3781 12.3611H22.7246C19.1954 12.3611 16.6811 14.7057 16.6811 17.9983V22.7141C16.6811 25.9877 18.8425 28.3169 22.3468 28.3169H29.701C31.0211 28.3169 32.0913 27.3174 32.0913 26.0869V10.6976C32.0913 6.96621 30.1684 4.61022 25.5708 4.61022Z" fill="white"/>
</svg>
