<svg width="135" height="41" viewBox="0 0 135 41" fill="none" xmlns="http://www.w3.org/2000/svg">
<path d="M91.6092 30.5346V24.1578C91.6092 22.5881 91.0214 21.8033 89.5521 21.8033C88.9643 21.8033 88.2786 21.9014 87.8868 21.9995V31.3195C87.8868 31.6138 87.5929 31.9081 87.2991 31.9081H85.0461C84.7522 31.9081 84.4583 31.6138 84.4583 31.3195V20.4298C84.4583 20.0374 84.7522 19.7431 85.0461 19.645C86.5154 19.1545 87.9848 18.8602 89.5521 18.8602C93.0785 18.8602 95.0376 20.7242 95.0376 24.1578V31.4176C95.0376 31.7119 94.7438 32.0062 94.4499 32.0062H93.0785C92.1969 32.0062 91.6092 31.3195 91.6092 30.5346ZM100.425 26.7086L100.327 27.5915C100.327 28.7688 101.111 29.4555 102.384 29.4555C103.364 29.4555 104.246 29.1612 105.225 28.6706C105.323 28.6706 105.421 28.5725 105.519 28.5725C105.715 28.5725 105.813 28.6706 105.911 28.7688C106.009 28.8669 106.205 29.1612 106.205 29.1612C106.401 29.4555 106.597 29.8479 106.597 30.1422C106.597 30.6327 106.303 31.1233 105.911 31.3195C104.833 31.9081 103.56 32.2024 102.188 32.2024C100.621 32.2024 99.3477 31.81 98.3682 31.0252C97.3886 30.1422 96.8009 28.965 96.8009 27.4934V23.6673C96.8009 20.626 98.76 18.7621 102.091 18.7621C105.323 18.7621 107.184 20.5279 107.184 23.6673V26.0218C107.184 26.3161 106.89 26.6104 106.597 26.6104H100.425V26.7086ZM100.327 24.5502H104.05V23.5692C104.05 22.3919 103.364 21.6071 102.188 21.6071C101.013 21.6071 100.327 22.2938 100.327 23.5692V24.5502ZM125.306 26.7086L125.208 27.5915C125.208 28.7688 125.992 29.4555 127.265 29.4555C128.245 29.4555 129.127 29.1612 130.106 28.6706C130.204 28.6706 130.302 28.5725 130.4 28.5725C130.596 28.5725 130.694 28.6706 130.792 28.7688C130.89 28.8669 131.086 29.1612 131.086 29.1612C131.282 29.4555 131.478 29.8479 131.478 30.1422C131.478 30.6327 131.184 31.1233 130.792 31.3195C129.714 31.9081 128.441 32.2024 127.069 32.2024C125.502 32.2024 124.229 31.81 123.249 31.0252C122.27 30.1422 121.682 28.965 121.682 27.4934V23.6673C121.682 20.626 123.641 18.7621 126.972 18.7621C130.204 18.7621 132.065 20.5279 132.065 23.6673V26.0218C132.065 26.3161 131.771 26.6104 131.478 26.6104H125.306V26.7086ZM125.208 24.5502H128.931V23.5692C128.931 22.3919 128.245 21.6071 127.069 21.6071C125.894 21.6071 125.208 22.2938 125.208 23.5692V24.5502ZM67.6098 32.0062H68.9812C69.2751 32.0062 69.5689 31.7119 69.5689 31.4176V24.1578C69.5689 20.8223 67.8057 18.8602 64.867 18.8602C63.9854 18.8602 63.0058 19.0564 62.4181 19.2526V15.6227C62.4181 14.8379 61.7324 14.1511 60.9487 14.1511H59.5773C59.2835 14.1511 58.9896 14.4454 58.9896 14.7398V31.4176C58.9896 31.7119 59.2835 32.0062 59.5773 32.0062H61.8303C62.1242 32.0062 62.4181 31.7119 62.4181 31.4176V22.1957C62.9079 21.9995 63.5936 21.9014 64.0834 21.9014C65.5527 21.9014 66.1404 22.5881 66.1404 24.2559V30.6327C66.2384 31.3195 66.8261 32.0062 67.6098 32.0062ZM82.4012 23.7654V27.3953C82.4012 30.4365 80.3442 32.3005 76.9157 32.3005C73.5851 32.3005 71.4301 30.4365 71.4301 27.3953V23.7654C71.4301 20.7242 73.4872 18.8602 76.9157 18.8602C80.3442 18.8602 82.4012 20.7242 82.4012 23.7654ZM78.9728 23.7654C78.9728 22.5881 78.2871 21.8033 77.0136 21.8033C75.7402 21.8033 75.0545 22.49 75.0545 23.7654V27.3953C75.0545 28.5725 75.7402 29.2593 77.0136 29.2593C78.2871 29.2593 78.9728 28.5725 78.9728 27.3953V23.7654ZM57.1284 22.0976C57.1284 25.237 54.7775 27.3953 51.6429 27.3953C50.8592 27.3953 50.1735 27.2972 49.4878 27.0029V31.4176C49.4878 31.7119 49.1939 32.0062 48.9001 32.0062H46.6471C46.3532 32.0062 46.0593 31.7119 46.0593 31.4176V15.8189C46.0593 15.4265 46.3532 15.1322 46.6471 15.0341C48.1164 14.5435 49.5858 14.2492 51.1531 14.2492C54.6795 14.2492 57.1284 16.4075 57.1284 19.7431V22.0976ZM53.602 19.5469C53.602 17.9772 52.5245 17.1924 51.0551 17.1924C50.1735 17.1924 49.5858 17.4867 49.5858 17.4867V23.9616C50.1735 24.2559 50.4674 24.354 51.1531 24.354C52.6224 24.354 53.6999 23.4711 53.6999 21.9995V19.5469H53.602ZM120.408 22.0976C120.408 25.237 118.057 27.3953 114.923 27.3953C114.139 27.3953 113.454 27.2972 112.768 27.0029V31.4176C112.768 31.7119 112.474 32.0062 112.18 32.0062H109.927C109.633 32.0062 109.339 31.7119 109.339 31.4176V15.8189C109.339 15.4265 109.633 15.1322 109.927 15.0341C111.396 14.5435 112.866 14.2492 114.433 14.2492C117.96 14.2492 120.408 16.4075 120.408 19.7431V22.0976ZM116.882 19.5469C116.882 17.9772 115.804 17.1924 114.335 17.1924C113.453 17.1924 112.866 17.4867 112.866 17.4867V23.9616C113.454 24.2559 113.747 24.354 114.433 24.354C115.902 24.354 116.98 23.4711 116.98 21.9995V19.5469H116.882Z" fill="white"/>
<path fill-rule="evenodd" clip-rule="evenodd" d="M24.4986 3.40929C33.9233 5.63813 39.7594 15.0968 37.5339 24.5357C35.3084 33.9747 25.8641 39.8197 16.4394 37.5908C7.01471 35.362 1.17858 25.9033 3.40405 16.4644C5.62953 7.02541 15.0739 1.18044 24.4986 3.40929ZM27.1536 14.6417C27.8393 14.6417 28.4271 15.2303 28.4271 15.9171V16.8981C28.4271 17.1924 28.2311 17.3886 27.9373 17.3886H25.6843V31.4176C25.6843 31.712 25.3904 32.0063 25.0965 32.0063H23.7251C22.8435 32.0063 22.1578 31.3195 22.1578 30.4366V27.2972C21.1783 27.6897 20.3946 27.7878 19.4151 27.7878C16.2804 27.7878 14.4193 25.7276 14.4193 22.1958V17.4867H13.0479C12.3622 17.4867 11.7744 16.8981 11.7744 16.2114V15.2303C11.7744 14.936 11.9703 14.7398 12.2642 14.7398H21.1783L15.3009 9.14783C15.105 8.95162 15.2029 8.5592 15.4968 8.4611L17.358 7.87247C18.1416 7.67626 18.9253 7.87247 19.4151 8.4611L24.8027 14.6417H27.1536ZM20.1987 24.7465C20.7864 24.7465 21.5701 24.6484 22.1578 24.3541V17.4867H17.8477V22.1958C17.8477 23.9617 18.6314 24.7465 20.1987 24.7465Z" fill="white"/>
</svg>
