<svg width="60" height="60" viewBox="0 0 60 60" fill="none" xmlns="http://www.w3.org/2000/svg">
<path d="M5 55C5 43.9542 13.9543 35 25 35C36.0458 35 45 43.9542 45 55H5ZM25 32.5C16.7125 32.5 10 25.7875 10 17.5C10 9.2125 16.7125 2.5 25 2.5C33.2875 2.5 40 9.2125 40 17.5C40 25.7875 33.2875 32.5 25 32.5ZM43.407 38.083C51.1205 40.0543 56.9197 46.8088 57.459 55H50C50 48.4755 47.5005 42.5347 43.407 38.083ZM38.3503 32.3923C42.432 28.7305 45 23.4152 45 17.5C45 13.9566 44.0785 10.6285 42.4622 7.74218C48.1882 8.88493 52.5 13.9366 52.5 20C52.5 26.9062 46.9062 32.5 40 32.5C39.4408 32.5 38.89 32.4633 38.3503 32.3923Z" fill="url(#paint0_linear_8_114)"/>
<defs>
<linearGradient id="paint0_linear_8_114" x1="48.7676" y1="2.5" x2="13.3996" y2="5.05116" gradientUnits="userSpaceOnUse">
<stop stop-color="#DD9FCE"/>
<stop offset="1" stop-color="#AE78F2"/>
</linearGradient>
</defs>
</svg>
