<svg width="1174" height="166" viewBox="0 0 1174 166" fill="none" xmlns="http://www.w3.org/2000/svg">
<path d="M52.3097 10.265C82.0357 10.265 104.748 15.943 104.748 51.514C104.748 87.252 82.0357 92.93 52.3097 92.93H36.7787V128H10.0587V10.265H52.3097ZM53.9797 69.55C69.8447 69.55 78.0277 67.88 78.0277 51.514C78.0277 35.315 69.8447 33.645 53.9797 33.645H36.7787V69.55H53.9797ZM199.347 129.67C190.162 129.837 184.985 124.827 184.985 115.642V10.265H211.705V106.29L268.986 104.62V128L199.347 129.67ZM427.637 33.645H400.917V104.62H427.637V128H347.477V104.62H374.197V33.645H347.477V10.265H427.637V33.645Z" fill="#C689F5"/>
<path d="M678.02 128V10.265H730.625L766.196 121.32H772.876L767.866 104.62V10.265H794.586V128H741.981L706.41 16.945H699.73L704.74 33.645V128H678.02ZM989.947 10.265L918.972 69.216L989.947 128H950.869L901.604 86.417V128H874.884V10.265H901.604V52.015L950.869 10.265H989.947ZM1044.96 69.049C1044.96 34.814 1067.68 8.59499 1105.08 8.59499C1142.32 8.59499 1165.04 34.814 1165.04 69.049C1165.04 103.451 1142.32 129.67 1105.08 129.67C1067.68 129.67 1044.96 103.451 1044.96 69.049ZM1071.68 69.049C1071.68 91.761 1082.87 106.29 1105.08 106.29C1127.29 106.29 1138.32 91.761 1138.32 69.049C1138.32 46.504 1127.29 31.975 1105.08 31.975C1082.87 31.975 1071.68 46.504 1071.68 69.049Z" fill="#C689F5"/>
<path d="M52.3097 5.26499C82.0357 5.26499 104.748 10.943 104.748 46.514C104.748 82.252 82.0357 87.93 52.3097 87.93H36.7787V123H10.0587V5.26499H52.3097ZM53.9797 64.55C69.8447 64.55 78.0277 62.88 78.0277 46.514C78.0277 30.315 69.8447 28.645 53.9797 28.645H36.7787V64.55H53.9797ZM199.347 124.67C190.162 124.837 184.985 119.827 184.985 110.642V5.26499H211.705V101.29L268.986 99.62V123L199.347 124.67ZM427.637 28.645H400.917V99.62H427.637V123H347.477V99.62H374.197V28.645H347.477V5.26499H427.637V28.645Z" fill="white"/>
<path d="M678.02 123V5.26499H730.625L766.196 116.32H772.876L767.866 99.62V5.26499H794.586V123H741.981L706.41 11.945H699.73L704.74 28.645V123H678.02ZM989.947 5.26499L918.972 64.216L989.947 123H950.869L901.604 81.417V123H874.884V5.26499H901.604V47.015L950.869 5.26499H989.947ZM1044.96 64.049C1044.96 29.814 1067.68 3.59499 1105.08 3.59499C1142.32 3.59499 1165.04 29.814 1165.04 64.049C1165.04 98.451 1142.32 124.67 1105.08 124.67C1067.68 124.67 1044.96 98.451 1044.96 64.049ZM1071.68 64.049C1071.68 86.761 1082.87 101.29 1105.08 101.29C1127.29 101.29 1138.32 86.761 1138.32 64.049C1138.32 41.504 1127.29 26.975 1105.08 26.975C1082.87 26.975 1071.68 41.504 1071.68 64.049Z" fill="white"/>
</svg>
