<svg width="63" height="22" viewBox="0 0 63 22" fill="none" xmlns="http://www.w3.org/2000/svg">
<path d="M36.8197 10.8322C35.682 9.88894 34.2091 9.27995 32.9102 8.74243C31.119 8.00165 29.5715 7.36252 29.5715 6.1771C29.5715 5.65943 29.8137 5.18385 30.2543 4.84085C30.7188 4.47879 31.3675 4.27949 32.0797 4.27949C34.3195 4.27949 36.1059 5.86348 36.1218 5.87778L36.5585 6.27635L38.5435 2.55339L38.3164 2.31361C38.2298 2.22156 36.1393 0.0634766 32.1067 0.0634766C30.1718 0.0634766 28.3924 0.681968 27.0943 1.80466C25.7771 2.944 25.0498 4.51689 25.0498 6.23267C25.0498 7.90558 25.6993 9.25853 27.0324 10.3677C28.1535 11.2991 29.5501 11.9009 30.9014 12.4837C32.7442 13.2776 34.3378 13.9644 34.3378 15.1864C34.3378 16.1169 33.7073 17.1118 31.9407 17.1118C29.4072 17.1118 27.3738 15.1824 27.3539 15.1626L26.9728 14.7926L24.5051 18.2122L24.7513 18.4877C24.7791 18.5163 25.4166 19.2206 26.6147 19.9217C27.7136 20.5632 29.5207 21.3286 31.8844 21.3286C33.9527 21.3286 35.7153 20.6942 36.9825 19.4953C38.1743 18.3663 38.8301 16.8069 38.8301 15.1038C38.8301 13.3515 38.1727 11.9541 36.8197 10.8322Z" fill="white"/>
<path d="M57.6807 21.0212H62.3048V0.370605H57.6807V21.0212Z" fill="white"/>
<path d="M48.6421 17.1539H45.1224V4.23667H48.226C49.6171 4.23667 50.415 5.01477 50.415 6.3709C50.415 7.7413 49.6973 8.43521 48.2808 8.43521H47.2121V12.236H48.6421C49.4242 12.236 50.076 12.4798 50.5262 12.9434C50.9994 13.4294 51.1916 13.9105 51.1916 14.6036C51.1916 16.1773 50.215 17.1539 48.6421 17.1539ZM54.7819 11.7405C54.3246 11.0212 53.6973 10.4495 52.951 10.0668C54.1555 9.10136 54.8367 7.619 54.8367 5.92624C54.8367 4.21442 54.1848 2.78687 52.951 1.79519C51.7886 0.862249 50.1745 0.368408 48.2808 0.368408H40.7571V21.019H48.365C50.3833 21.019 52.1292 20.5092 53.4131 19.543C54.8708 18.4473 55.6402 16.8165 55.6402 14.8252C55.6402 13.6906 55.3441 12.6234 54.7819 11.7405Z" fill="white"/>
<path d="M10.6758 0C4.77975 0 0 4.79084 0 10.7004C0 16.2408 4.20094 20.7975 9.58333 21.3453V13.5723C8.4265 13.1308 7.60235 12.0105 7.60235 10.7004C7.60235 9.00529 8.98069 7.62616 10.6758 7.62616C12.3702 7.62616 13.7501 9.00529 13.7501 10.7004C13.7501 12.0105 12.9244 13.1308 11.7676 13.5723V21.3453C17.1507 20.7975 21.3517 16.2408 21.3517 10.7004C21.3517 4.79084 16.5719 0 10.6758 0Z" fill="white"/>
</svg>
