<svg width="209" height="31" viewBox="0 0 209 31" fill="none" xmlns="http://www.w3.org/2000/svg">
<path fill-rule="evenodd" clip-rule="evenodd" d="M98.5063 7.2075H72.8581L74.2981 0H107.224V7.2075L85.8574 22.2037L78.4237 23.7537H104.072L102.632 31H69.7056V23.7925L91.0726 8.7575L98.5063 7.2075ZM41.0994 7.2075L46.3147 8.7575L45.6531 12.1287H62.3497L61.0264 18.8713H44.252L43.5514 22.5525C43.4736 22.8625 43.5514 23.1725 43.7849 23.4437C43.9795 23.6762 44.252 23.7925 44.6022 23.7925H63.0892L61.6881 31H38.8421C38.0248 31 37.2464 30.845 36.5069 30.4962C35.8063 30.1475 35.2225 29.6825 34.7555 29.14C34.3274 28.5587 33.9771 27.9 33.7825 27.1637C33.5879 26.3887 33.549 25.6137 33.7047 24.8L38.6864 0H67.9153L66.4363 7.2075H41.0994ZM1.47896 0H33.3933L31.9143 7.2075H15.9572L21.1724 8.7575L16.6577 31H6.26611L11.0533 7.2075H0L1.47896 0Z" fill="white"/>
<path fill-rule="evenodd" clip-rule="evenodd" d="M190.591 10.9662C190.785 11.2375 191.058 11.3537 191.408 11.3537H197.635C197.869 11.3537 198.064 11.2762 198.258 11.1212C198.453 10.9275 198.608 10.7337 198.647 10.5012L199.037 8.40874C199.114 8.09874 199.037 7.78874 198.803 7.55624C198.608 7.28499 198.336 7.16874 197.986 7.16874H191.758C191.214 7.16874 190.863 7.43999 190.747 8.02124L190.357 10.1137C190.28 10.4625 190.357 10.7337 190.591 10.9662ZM187.049 23.3662C187.244 23.6375 187.516 23.7537 187.867 23.7537H197.713C197.947 23.7537 198.141 23.6762 198.336 23.5212C198.531 23.3275 198.686 23.1337 198.725 22.9012L199.581 18.7937C199.659 18.4837 199.581 18.1737 199.348 17.9412C199.153 17.67 198.881 17.5537 198.531 17.5537H188.645C188.1 17.5537 187.75 17.825 187.633 18.3675L186.816 22.5525C186.777 22.8625 186.855 23.1337 187.049 23.3662ZM176.969 24.8L178.409 17.7862C178.604 16.8175 179.11 16.0037 179.849 15.3837C180.627 14.7637 181.523 14.4537 182.534 14.4537H185.22C184.558 14.4537 183.936 14.3375 183.391 14.0662C182.846 13.7562 182.379 13.4075 181.99 12.9425C181.6 12.4775 181.328 11.935 181.172 11.3537C181.017 10.7725 181.017 10.1525 181.133 9.49374L182.223 4.14624C182.457 2.90624 183.04 1.89874 184.013 1.12374C184.986 0.348743 186.076 -0.0387573 187.322 -0.0387573H203.824C204.641 -0.0387573 205.419 0.154993 206.12 0.503743C206.82 0.813743 207.404 1.27874 207.871 1.85999C208.338 2.40249 208.689 3.06124 208.883 3.79749C209.078 4.53374 209.117 5.30874 208.961 6.08374L207.949 11.0825C207.755 12.0125 207.249 12.8262 206.47 13.485C205.731 14.105 204.875 14.415 203.863 14.415H204.797C205.458 14.415 206.042 14.57 206.587 14.8412C207.171 15.1125 207.638 15.4612 208.027 15.965C208.416 16.3912 208.689 16.9337 208.844 17.515C209.039 18.0962 209.039 18.7162 208.883 19.3362L207.404 26.7762C207.171 28.0162 206.548 29.0237 205.575 29.7987C204.641 30.5737 203.512 30.9612 202.267 30.9612H182.145C181.328 30.9612 180.55 30.8062 179.81 30.4575C179.11 30.1087 178.526 29.6437 178.059 29.1012C177.631 28.52 177.28 27.8612 177.086 27.125C176.813 26.3887 176.813 25.6137 176.969 24.8ZM156.653 10.9662C156.847 11.2375 157.12 11.3537 157.47 11.3537H163.697C163.931 11.3537 164.125 11.2762 164.32 11.1212C164.515 10.9275 164.67 10.7337 164.709 10.5012L165.098 8.40874C165.176 8.09874 165.098 7.78874 164.865 7.55624C164.67 7.28499 164.398 7.16874 164.048 7.16874H157.82C157.275 7.16874 156.925 7.43999 156.808 8.02124L156.419 10.1137C156.38 10.4625 156.458 10.7337 156.653 10.9662ZM153.15 23.3662C153.345 23.6375 153.617 23.7537 153.967 23.7537H163.814C164.048 23.7537 164.242 23.6762 164.437 23.5212C164.631 23.3275 164.787 23.1337 164.826 22.9012L165.682 18.7937C165.76 18.4837 165.682 18.1737 165.449 17.9412C165.254 17.67 164.982 17.5537 164.631 17.5537H154.746C154.201 17.5537 153.85 17.825 153.734 18.3675L152.916 22.5137C152.839 22.8625 152.916 23.1337 153.15 23.3662ZM143.031 24.8L144.471 17.7862C144.665 16.8175 145.171 16.0037 145.911 15.3837C146.689 14.7637 147.584 14.4537 148.596 14.4537H151.282C150.62 14.4537 149.997 14.3375 149.453 14.0662C148.908 13.7562 148.441 13.4075 148.051 12.9425C147.662 12.4775 147.39 11.935 147.234 11.3537C147.078 10.7725 147.078 10.1525 147.195 9.49374L148.285 4.14624C148.518 2.90624 149.102 1.89874 150.075 1.12374C151.048 0.348743 152.138 -0.0387573 153.383 -0.0387573H169.885C170.703 -0.0387573 171.481 0.154993 172.182 0.503743C172.882 0.813743 173.466 1.27874 173.933 1.85999C174.4 2.40249 174.75 3.06124 174.945 3.79749C175.14 4.53374 175.179 5.30874 175.023 6.08374L173.972 11.16C173.777 12.09 173.272 12.9037 172.493 13.5625C171.754 14.1825 170.897 14.4925 169.885 14.4925H170.82C171.481 14.4925 172.065 14.6475 172.61 14.9187C173.194 15.19 173.661 15.5387 174.05 16.0425C174.439 16.4687 174.712 17.0112 174.867 17.5925C175.062 18.1737 175.062 18.7937 174.906 19.4137L173.427 26.8537C173.194 28.0937 172.571 29.1012 171.598 29.8762C170.664 30.6512 169.535 31.0387 168.29 31.0387H148.168C147.351 31.0387 146.572 30.8837 145.833 30.535C145.132 30.1862 144.549 29.7212 144.082 29.1787C143.653 28.5975 143.303 27.9387 143.109 27.2025C142.914 26.3887 142.875 25.6137 143.031 24.8ZM122.753 10.9662C122.948 11.2375 123.221 11.3537 123.571 11.3537H129.798C130.031 11.3537 130.226 11.2762 130.421 11.1212C130.615 10.9275 130.771 10.7337 130.81 10.5012L131.199 8.40874C131.277 8.09874 131.199 7.78874 130.966 7.55624C130.771 7.28499 130.499 7.16874 130.148 7.16874H123.921C123.376 7.16874 123.026 7.43999 122.909 8.02124L122.52 10.1137C122.481 10.4625 122.559 10.7337 122.753 10.9662ZM119.212 23.3662C119.406 23.6375 119.679 23.7537 120.029 23.7537H129.876C130.109 23.7537 130.304 23.6762 130.499 23.5212C130.693 23.3275 130.849 23.1337 130.888 22.9012L131.744 18.7937C131.822 18.4837 131.744 18.1737 131.51 17.9412C131.316 17.67 131.043 17.5537 130.693 17.5537H120.807C120.263 17.5537 119.912 17.825 119.796 18.3675L118.978 22.5137C118.939 22.8625 119.017 23.1337 119.212 23.3662ZM109.131 24.8L110.572 17.7862C110.766 16.8175 111.272 16.0037 112.012 15.3837C112.79 14.7637 113.685 14.4537 114.697 14.4537H117.383C116.721 14.4537 116.098 14.3375 115.553 14.0662C115.008 13.7562 114.541 13.4075 114.152 12.9425C113.763 12.4775 113.491 11.935 113.335 11.3537C113.179 10.7725 113.179 10.1525 113.296 9.49374L114.386 4.14624C114.619 2.90624 115.203 1.89874 116.176 1.12374C117.149 0.348743 118.239 -0.0387573 119.484 -0.0387573H135.986C136.804 -0.0387573 137.582 0.154993 138.283 0.503743C138.983 0.813743 139.567 1.27874 140.034 1.85999C140.501 2.40249 140.851 3.06124 141.046 3.79749C141.24 4.53374 141.279 5.30874 141.124 6.08374L140.112 11.0825C139.917 12.0125 139.411 12.8262 138.633 13.485C137.893 14.105 137.037 14.415 136.025 14.415H136.959C137.621 14.415 138.205 14.57 138.75 14.8412C139.333 15.1125 139.8 15.4612 140.19 15.965C140.579 16.3912 140.851 16.9337 141.007 17.515C141.202 18.0962 141.202 18.7162 141.046 19.3362L139.567 26.7762C139.333 28.0162 138.711 29.0237 137.738 29.7987C136.804 30.5737 135.675 30.9612 134.429 30.9612H114.308C113.491 30.9612 112.712 30.8062 111.973 30.4575C111.272 30.1087 110.688 29.6437 110.221 29.1012C109.793 28.52 109.443 27.8612 109.248 27.125C109.015 26.3887 108.976 25.6137 109.131 24.8Z" fill="#EA2087"/>
</svg>
