<svg width="1180" height="175" viewBox="0 0 1180 175" fill="none" xmlns="http://www.w3.org/2000/svg">
<g opacity="0.1" clip-path="url(#clip0_8_488)">
<path fill-rule="evenodd" clip-rule="evenodd" d="M556.084 40.6875H411.296L419.425 0H605.299V40.6875L484.679 125.344L442.714 134.094H587.503L579.373 175H393.499V134.313L514.12 49.4375L556.084 40.6875ZM232.013 40.6875L261.454 49.4375L257.719 68.4687H351.974L344.504 106.531H249.809L245.855 127.313C245.415 129.063 245.855 130.813 247.173 132.344C248.271 133.656 249.809 134.313 251.787 134.313H356.149L348.239 175H219.27C214.656 175 210.262 174.125 206.087 172.156C202.133 170.187 198.837 167.562 196.2 164.5C193.784 161.219 191.806 157.5 190.708 153.344C189.609 148.969 189.389 144.594 190.268 140L218.391 0H383.393L375.044 40.6875H232.013ZM8.34895 0H188.511L180.162 40.6875H90.0808L119.522 49.4375L94.0356 175H35.3732L62.3974 40.6875H0L8.34895 0Z" fill="white"/>
<path fill-rule="evenodd" clip-rule="evenodd" d="M1075.92 61.9058C1077.01 63.437 1078.55 64.0933 1080.53 64.0933H1115.68C1117 64.0933 1118.1 63.6558 1119.2 62.7808C1120.3 61.687 1121.18 60.5933 1121.4 59.2808L1123.59 47.4683C1124.03 45.7183 1123.59 43.9683 1122.27 42.6558C1121.18 41.1245 1119.64 40.4683 1117.66 40.4683H1082.51C1079.43 40.4683 1077.45 41.9995 1076.8 45.2808L1074.6 57.0933C1074.16 59.062 1074.6 60.5933 1075.92 61.9058ZM1055.92 131.906C1057.02 133.437 1058.56 134.093 1060.54 134.093H1116.12C1117.44 134.093 1118.54 133.656 1119.64 132.781C1120.74 131.687 1121.62 130.593 1121.84 129.281L1126.67 106.093C1127.11 104.343 1126.67 102.593 1125.35 101.281C1124.25 99.7495 1122.71 99.0933 1120.74 99.0933H1064.93C1061.85 99.0933 1059.88 100.625 1059.22 103.687L1054.6 127.312C1054.38 129.062 1054.82 130.593 1055.92 131.906ZM999.018 140L1007.15 100.406C1008.25 94.937 1011.1 90.3433 1015.28 86.8433C1019.67 83.3433 1024.72 81.5933 1030.44 81.5933H1045.6C1041.86 81.5933 1038.35 80.937 1035.27 79.4058C1032.19 77.6558 1029.56 75.687 1027.36 73.062C1025.16 70.437 1023.63 67.3745 1022.75 64.0933C1021.87 60.812 1021.87 57.312 1022.53 53.5933L1028.68 23.4058C1030 16.4058 1033.29 10.7183 1038.79 6.34326C1044.28 1.96826 1050.43 -0.219238 1057.46 -0.219238H1150.62C1155.23 -0.219238 1159.63 0.874512 1163.58 2.84326C1167.54 4.59326 1170.83 7.21826 1173.47 10.4995C1176.1 13.562 1178.08 17.2808 1179.18 21.437C1180.28 25.5933 1180.5 29.9683 1179.62 34.3433L1173.91 62.562C1172.81 67.812 1169.95 72.4058 1165.56 76.1245C1161.38 79.6245 1156.55 81.3745 1150.84 81.3745H1156.11C1159.85 81.3745 1163.14 82.2495 1166.22 83.7808C1169.51 85.312 1172.15 87.2808 1174.35 90.1245C1176.54 92.5308 1178.08 95.5933 1178.96 98.8745C1180.06 102.156 1180.06 105.656 1179.18 109.156L1170.83 151.156C1169.51 158.156 1166 163.843 1160.5 168.218C1155.23 172.593 1148.86 174.781 1141.83 174.781H1028.24C1023.63 174.781 1019.23 173.906 1015.06 171.937C1011.1 169.968 1007.81 167.343 1005.17 164.281C1002.75 161 1000.78 157.281 999.677 153.125C998.139 148.968 998.139 144.593 999.018 140ZM884.33 61.9058C885.428 63.437 886.966 64.0933 888.944 64.0933H924.097C925.416 64.0933 926.514 63.6558 927.613 62.7808C928.711 61.687 929.59 60.5933 929.81 59.2808L932.007 47.4683C932.446 45.7183 932.007 43.9683 930.689 42.6558C929.59 41.1245 928.052 40.4683 926.075 40.4683H890.921C887.845 40.4683 885.868 41.9995 885.209 45.2808L883.012 57.0933C882.792 59.062 883.231 60.5933 884.33 61.9058ZM864.556 131.906C865.655 133.437 867.193 134.093 869.17 134.093H924.756C926.075 134.093 927.173 133.656 928.272 132.781C929.37 131.687 930.249 130.593 930.469 129.281L935.302 106.093C935.742 104.343 935.302 102.593 933.984 101.281C932.886 99.7495 931.348 99.0933 929.37 99.0933H873.564C870.488 99.0933 868.511 100.625 867.852 103.687L863.238 127.093C862.798 129.062 863.238 130.593 864.556 131.906ZM807.432 140L815.561 100.406C816.659 94.937 819.516 90.3433 823.69 86.8433C828.084 83.3433 833.138 81.5933 838.85 81.5933H854.01C850.275 81.5933 846.76 80.937 843.684 79.4058C840.608 77.6558 837.971 75.687 835.774 73.062C833.577 70.437 832.039 67.3745 831.16 64.0933C830.281 60.812 830.281 57.312 830.941 53.5933L837.092 23.4058C838.411 16.4058 841.706 10.7183 847.199 6.34326C852.692 1.96826 858.844 -0.219238 865.874 -0.219238H959.031C963.645 -0.219238 968.039 0.874512 971.994 2.84326C975.949 4.59326 979.244 7.21826 981.881 10.4995C984.517 13.562 986.495 17.2808 987.593 21.437C988.692 25.5933 988.912 29.9683 988.033 34.3433L982.101 62.9995C981.002 68.2495 978.146 72.8433 973.752 76.562C969.577 80.062 964.743 81.812 959.031 81.812H964.304C968.039 81.812 971.335 82.687 974.411 84.2183C977.706 85.7495 980.343 87.7183 982.54 90.562C984.737 92.9683 986.275 96.0308 987.154 99.312C988.252 102.593 988.252 106.093 987.374 109.593L979.025 151.593C977.706 158.593 974.191 164.281 968.698 168.656C963.425 173.031 957.054 175.218 950.023 175.218H836.433C831.819 175.218 827.425 174.343 823.251 172.375C819.296 170.406 816 167.781 813.364 164.718C810.947 161.437 808.97 157.718 807.871 153.562C806.773 148.968 806.553 144.593 807.432 140ZM692.963 61.9058C694.062 63.437 695.6 64.0933 697.577 64.0933H732.731C734.049 64.0933 735.147 63.6558 736.246 62.7808C737.344 61.687 738.223 60.5933 738.443 59.2808L740.64 47.4683C741.079 45.7183 740.64 43.9683 739.322 42.6558C738.223 41.1245 736.685 40.4683 734.708 40.4683H699.554C696.478 40.4683 694.501 41.9995 693.842 45.2808L691.645 57.0933C691.425 59.062 691.865 60.5933 692.963 61.9058ZM672.97 131.906C674.068 133.437 675.606 134.093 677.583 134.093H733.17C734.488 134.093 735.587 133.656 736.685 132.781C737.784 131.687 738.663 130.593 738.882 129.281L743.716 106.093C744.155 104.343 743.716 102.593 742.398 101.281C741.299 99.7495 739.761 99.0933 737.784 99.0933H681.978C678.902 99.0933 676.924 100.625 676.265 103.687L671.651 127.093C671.432 129.062 671.871 130.593 672.97 131.906ZM616.065 140L624.194 100.406C625.293 94.937 628.149 90.3433 632.323 86.8433C636.718 83.3433 641.771 81.5933 647.483 81.5933H662.643C658.908 81.5933 655.393 80.937 652.317 79.4058C649.241 77.6558 646.604 75.687 644.407 73.062C642.21 70.437 640.672 67.3745 639.794 64.0933C638.915 60.812 638.915 57.312 639.574 53.5933L645.726 23.4058C647.044 16.4058 650.34 10.7183 655.832 6.34326C661.325 1.96826 667.477 -0.219238 674.508 -0.219238H767.664C772.278 -0.219238 776.672 0.874512 780.627 2.84326C784.582 4.59326 787.878 7.21826 790.514 10.4995C793.151 13.562 795.128 17.2808 796.226 21.437C797.325 25.5933 797.545 29.9683 796.666 34.3433L790.953 62.562C789.855 67.812 786.999 72.4058 782.605 76.1245C778.43 79.6245 773.596 81.3745 767.884 81.3745H773.157C776.892 81.3745 780.188 82.2495 783.264 83.7808C786.559 85.312 789.196 87.2808 791.393 90.1245C793.59 92.5308 795.128 95.5933 796.007 98.8745C797.105 102.156 797.105 105.656 796.226 109.156L787.878 151.156C786.559 158.156 783.044 163.843 777.551 168.218C772.278 172.593 765.907 174.781 758.876 174.781H645.286C640.672 174.781 636.278 173.906 632.104 171.937C628.149 169.968 624.853 167.343 622.217 164.281C619.8 161 617.823 157.281 616.724 153.125C615.406 148.968 615.186 144.593 616.065 140Z" fill="white"/>
</g>
<defs>
<clipPath id="clip0_8_488">
<rect width="1179.84" height="175" fill="white"/>
</clipPath>
</defs>
</svg>
