<svg width="93" height="33" viewBox="0 0 93 33" fill="none" xmlns="http://www.w3.org/2000/svg">
<path d="M1.41546 28.3745H2.10155L1.464 31.0374C1.36939 31.4325 1.38722 31.7299 1.518 31.9283C1.64828 32.127 1.89077 32.2263 2.2452 32.2263C2.59741 32.2263 2.88621 32.127 3.11185 31.9283C3.33774 31.7299 3.49799 31.4325 3.59261 31.0374L4.2299 28.3745H4.92491L4.27176 31.1033C4.12984 31.6962 3.87695 32.1401 3.51484 32.4344C3.15247 32.7291 2.67741 32.8762 2.08966 32.8762C1.5014 32.8762 1.09793 32.7293 0.878229 32.4358C0.658284 32.1426 0.619893 31.6982 0.762312 31.1033L1.41546 28.3745Z" fill="white"/>
<path d="M4.83264 32.7595L5.92394 28.2009L7.99756 30.8816C8.05304 30.9571 8.10902 31.0381 8.16425 31.1241C8.21949 31.21 8.27596 31.3066 8.33392 31.4146L9.06187 28.3745H9.70411L8.61356 32.9297L6.49634 30.2012C6.43962 30.1276 6.38687 30.0499 6.33758 29.9679C6.28779 29.8859 6.24296 29.7999 6.20185 29.7103L5.47192 32.7595H4.83264Z" fill="white"/>
<path d="M9.64734 32.7595L10.697 28.3745H11.3915L10.3421 32.7595H9.64734Z" fill="white"/>
<path d="M11.3407 32.7595L12.3904 28.3745H14.7756L14.6307 28.9793H12.9402L12.6784 30.0726H14.3689L14.2193 30.6985H12.5286L12.0355 32.7595H11.3407Z" fill="white"/>
<path d="M14.4912 32.7595L15.5409 28.3745H16.2354L15.186 32.7595H14.4912Z" fill="white"/>
<path d="M16.1846 32.7595L17.2343 28.3745H19.6195L19.4746 28.9793H17.7841L17.5208 30.0786H19.2113L19.0617 30.7047H17.3712L17.0319 32.1215H18.7224L18.5698 32.7595H16.1846Z" fill="white"/>
<path d="M20.216 32.1155H20.8C21.121 32.1155 21.3672 32.0935 21.5384 32.0497C21.7095 32.0058 21.8666 31.9318 22.0105 31.828C22.2059 31.6865 22.3691 31.5102 22.5004 31.2994C22.6314 31.0889 22.7308 30.8434 22.7976 30.5638C22.8643 30.2842 22.8826 30.0394 22.8524 29.8292C22.8219 29.6181 22.7431 29.442 22.6156 29.3001C22.5197 29.1966 22.3932 29.1223 22.2351 29.0782C22.0769 29.0346 21.8193 29.0125 21.4611 29.0125H21.21H20.9588L20.216 32.1155ZM19.3672 32.7598L20.4169 28.3745H21.3539C21.9632 28.3745 22.3842 28.4057 22.6176 28.4686C22.8504 28.5318 23.0428 28.6373 23.1942 28.7849C23.395 28.9786 23.5228 29.2273 23.5778 29.5304C23.6326 29.8341 23.6133 30.1806 23.5201 30.57C23.427 30.9593 23.2806 31.3044 23.081 31.6048C22.8818 31.9055 22.6349 32.1534 22.3411 32.3491C22.119 32.497 21.8807 32.6022 21.6276 32.6654C21.3737 32.7281 20.9952 32.7598 20.4909 32.7598H20.3039H19.3672Z" fill="white"/>
<path d="M26.9031 30.2079H27.0814C27.4666 30.2079 27.7338 30.1645 27.8829 30.0788C28.0323 29.9931 28.1326 29.8413 28.1846 29.6236C28.2406 29.39 28.2116 29.2251 28.0972 29.1294C27.9827 29.0336 27.742 28.9853 27.3742 28.9853H27.1958L26.9031 30.2079ZM26.7195 30.7914L26.2485 32.7598H25.5975L26.6475 28.3747H27.6984C28.0097 28.3747 28.2349 28.3921 28.3736 28.427C28.5118 28.4617 28.626 28.5194 28.7161 28.5994C28.8259 28.7012 28.8979 28.8384 28.9326 29.0111C28.967 29.1839 28.9596 29.3742 28.9101 29.5815C28.86 29.7893 28.7763 29.981 28.6584 30.1568C28.5405 30.3325 28.4023 30.4704 28.2443 30.57C28.116 30.65 27.9746 30.707 27.8195 30.7406C27.6642 30.7748 27.4311 30.7914 27.1198 30.7914H26.9828H26.7195Z" fill="white"/>
<path d="M29.7677 31.0374H30.9588L30.76 30.0367C30.7505 29.9731 30.7416 29.8997 30.7339 29.8168C30.7268 29.7338 30.7218 29.6414 30.7186 29.5396C30.6725 29.6355 30.6262 29.7249 30.5799 29.8079C30.5338 29.8906 30.489 29.9669 30.4449 30.0367L29.7677 31.0374ZM31.2766 32.7595L31.0619 31.6303H29.3685L28.6019 32.7595H27.8724L31.0331 28.2009L32.0093 32.7595H31.2766Z" fill="white"/>
<path d="M33.0051 32.7595L33.4851 30.7525L32.6152 28.3745H33.3452L33.8851 29.8631C33.8975 29.9012 33.9124 29.951 33.9295 30.0129C33.9468 30.0749 33.9636 30.1415 33.9795 30.2136C34.0231 30.1437 34.0679 30.0773 34.1127 30.0157C34.1576 29.9537 34.2029 29.897 34.2487 29.845L35.5201 28.3745H36.2151L34.1742 30.7525L33.6939 32.7595H33.0051Z" fill="white"/>
<path d="M39.6341 30.5937C39.6344 30.5597 39.6443 30.4661 39.6636 30.3123C39.6785 30.1845 39.6901 30.0785 39.6985 29.9945C39.6572 30.0946 39.6084 30.1947 39.5524 30.2942C39.4962 30.394 39.4318 30.4958 39.3582 30.5999L37.6806 32.9363L37.1332 30.5521C37.11 30.454 37.0921 30.3591 37.0802 30.2675C37.0683 30.1756 37.0602 30.0847 37.0562 29.9945C37.0324 30.0867 37.0022 30.1828 36.9653 30.2838C36.9284 30.3846 36.8843 30.4901 36.8326 30.5999L35.8572 32.7594H35.2181L37.3222 28.1884L37.9211 30.9563C37.9298 31.0001 37.9424 31.0732 37.9578 31.175C37.9731 31.2768 37.9912 31.4026 38.0123 31.5522C38.0831 31.4264 38.1852 31.2669 38.3194 31.0732C38.3551 31.0212 38.3823 30.9813 38.4006 30.9533L40.2947 28.1884L40.234 32.7594H39.5885L39.6341 30.5937Z" fill="white"/>
<path d="M40.7888 32.7595L41.8388 28.3745H44.224L44.0791 28.9793H42.3884L42.1253 30.0786H43.8158L43.6662 30.7047H41.9755L41.6364 32.1215H43.3268L43.1738 32.7595H40.7888Z" fill="white"/>
<path d="M43.9713 32.7595L45.0626 28.2009L47.1362 30.8816C47.1917 30.9571 47.2477 31.0381 47.3029 31.1241C47.3582 31.21 47.4146 31.3066 47.4726 31.4146L48.2005 28.3745H48.843L47.7522 32.9297L45.635 30.2012C45.5783 30.1276 45.5255 30.0499 45.4762 29.9679C45.4265 29.8859 45.3816 29.7999 45.3405 29.7103L44.6106 32.7595H43.9713Z" fill="white"/>
<path d="M51.0599 28.9796L50.1551 32.7598H49.4603L50.3649 28.9796H49.2292L49.3741 28.3747H52.3345L52.1898 28.9796H51.0599Z" fill="white"/>
<path d="M51.7809 31.8818L52.3986 31.6185C52.4048 31.8139 52.4653 31.9633 52.5807 32.066C52.6961 32.1691 52.8628 32.2204 53.0813 32.2204C53.2873 32.2204 53.4657 32.1614 53.6153 32.0435C53.7651 31.9259 53.8639 31.7681 53.9113 31.5704C53.9729 31.3126 53.8191 31.083 53.4513 30.8816C53.3998 30.8516 53.3602 30.8296 53.3329 30.8155C52.918 30.5799 52.655 30.3667 52.544 30.176C52.4333 29.9852 52.4105 29.7522 52.4764 29.4767C52.5619 29.1193 52.7496 28.8298 53.0392 28.6081C53.3287 28.3864 53.6651 28.2755 54.0487 28.2755C54.364 28.2755 54.6129 28.3379 54.795 28.4627C54.9773 28.5878 55.0813 28.7669 55.1071 29.0004L54.4955 29.288C54.4425 29.1503 54.3727 29.0495 54.286 28.9853C54.1991 28.9214 54.0891 28.8895 53.9571 28.8895C53.7703 28.8895 53.6098 28.9398 53.4758 29.0391C53.3426 29.1391 53.2551 29.2729 53.2148 29.4408C53.1519 29.7044 53.3344 29.9498 53.7626 30.1774C53.7956 30.1953 53.8213 30.2096 53.8399 30.2195C54.2147 30.4189 54.4584 30.6144 54.5701 30.8051C54.6821 30.996 54.7041 31.2341 54.6355 31.5194C54.5362 31.935 54.3298 32.2649 54.0163 32.5094C53.7027 32.7539 53.3287 32.8762 52.895 32.8762C52.5307 32.8762 52.253 32.7905 52.0618 32.6186C51.8701 32.447 51.7765 32.2015 51.7809 31.8818Z" fill="white"/>
<path d="M56.9141 32.7595L57.9638 28.3745H58.6585L57.6088 32.7595H56.9141Z" fill="white"/>
<path d="M58.6074 32.7595L59.6987 28.2009L61.7723 30.8816C61.8278 30.9571 61.8838 31.0381 61.939 31.1241C61.9943 31.21 62.0507 31.3066 62.1087 31.4146L62.8366 28.3745H63.4789L62.3883 32.9297L60.2711 30.2012C60.2144 30.1276 60.1614 30.0499 60.1121 29.9679C60.0626 29.8859 60.0175 29.7999 59.9764 29.7103L59.2467 32.7595H58.6074Z" fill="white"/>
<path d="M65.696 28.9796L64.791 32.7598H64.0964L65.001 28.9796H63.8654L64.0103 28.3747H66.9706L66.8259 28.9796H65.696Z" fill="white"/>
<path d="M66.4524 32.7595L67.5021 28.3745H69.8873L69.7426 28.9793H68.0522L67.7889 30.0786H69.4794L69.3295 30.7047H67.6391L67.3 32.1215H68.9904L68.8376 32.7595H66.4524Z" fill="white"/>
<path d="M70.932 30.2433H71.0578C71.4254 30.2433 71.6803 30.1997 71.8219 30.1118C71.9636 30.0238 72.0617 29.8683 72.1147 29.6444C72.1727 29.4029 72.1489 29.2325 72.0426 29.1339C71.9374 29.0346 71.7093 28.9853 71.359 28.9853H71.2332L70.932 30.2433ZM70.7557 30.7974L70.2858 32.7595H69.6349L70.6848 28.3745H71.654C71.9381 28.3745 72.1541 28.3933 72.3015 28.4315C72.4491 28.4694 72.568 28.532 72.6579 28.6202C72.7649 28.7257 72.8342 28.8629 72.8664 29.0306C72.8979 29.1981 72.8897 29.3818 72.8422 29.5812C72.7582 29.9327 72.6096 30.2079 72.3966 30.4068C72.1836 30.6052 71.9106 30.7248 71.578 30.7644L72.5722 32.7595H71.7865L70.8344 30.7974H70.7557Z" fill="white"/>
<path d="M72.9839 32.7595L74.0336 28.3745H76.4188L76.2741 28.9793H74.5834L74.3216 30.0726H76.0123L75.8625 30.6985H74.172L73.6786 32.7595H72.9839Z" fill="white"/>
<path d="M77.224 31.0374H78.4154L78.2165 30.0367C78.2068 29.9731 78.1982 29.8997 78.1905 29.8168C78.1833 29.7338 78.1784 29.6414 78.1751 29.5396C78.1288 29.6355 78.0825 29.7249 78.0364 29.8079C77.9904 29.8906 77.9453 29.9669 77.9012 30.0367L77.224 31.0374ZM78.7332 32.7595L78.5184 31.6303H76.825L76.0584 32.7595H75.3287L78.4894 28.2009L79.4658 32.7595H78.7332Z" fill="white"/>
<path d="M83.9885 29.4408C83.8332 29.2692 83.6563 29.1404 83.4577 29.0544C83.2596 28.969 83.0396 28.9256 82.7981 28.9256C82.3312 28.9256 81.9141 29.0795 81.5478 29.3868C81.181 29.6945 80.9392 30.0927 80.8221 30.5822C80.7089 31.0555 80.7582 31.4456 80.9697 31.753C81.1812 32.0606 81.5042 32.2147 81.9379 32.2147C82.1913 32.2147 82.4429 32.1686 82.6936 32.0767C82.9442 31.9848 83.1971 31.8461 83.4515 31.6601L83.2586 32.4661C83.0389 32.6038 82.8107 32.7068 82.5747 32.7744C82.3384 32.8423 82.092 32.8762 81.8351 32.8762C81.5082 32.8762 81.2189 32.8215 80.968 32.7115C80.7168 32.6018 80.5115 32.4403 80.3527 32.2263C80.1947 32.0168 80.0934 31.7698 80.05 31.485C80.006 31.2006 80.0226 30.8975 80.0993 30.5757C80.1764 30.2545 80.3049 29.9525 80.4845 29.6699C80.6638 29.3873 80.8855 29.1391 81.1485 28.9256C81.4126 28.7099 81.6949 28.5469 81.9956 28.4357C82.2966 28.3253 82.6069 28.2695 82.9262 28.2695C83.1773 28.2695 83.4077 28.3072 83.6175 28.3822C83.8272 28.4568 84.0209 28.57 84.199 28.7223L83.9885 29.4408Z" fill="white"/>
<path d="M84.0557 32.7595L85.1054 28.3745H87.4906L87.3457 28.9793H85.6555L85.3922 30.0786H87.0826L86.9328 30.7047H85.2423L84.9032 32.1215H86.5937L86.4409 32.7595H84.0557Z" fill="white"/>
<path d="M71.383 24.5532H66.6069L73.2494 0.563671H78.0257L71.383 24.5532Z" fill="white"/>
<path d="M68.9036 1.3221C68.5724 0.865612 68.0617 0.635264 67.3679 0.635264H41.1044L39.8035 5.33385H44.5824V5.33113H63.696L62.3055 10.3522H43.1914L43.1931 10.3418H38.4162L34.4515 24.6548H39.2309L41.8915 15.0481H63.3772C64.0482 15.0481 64.6798 14.8192 65.2737 14.3615C65.8664 13.9033 66.2565 13.3383 66.4435 12.6636L69.1039 3.0549C69.2981 2.35767 69.231 1.77907 68.9036 1.3221Z" fill="white"/>
<path d="M31.6685 23.0559C31.4047 24.0057 30.5398 24.6628 29.5537 24.6628H4.91128C4.23981 24.6628 3.74072 24.434 3.41254 23.9768C3.0846 23.519 3.01426 22.9528 3.20176 22.2784L9.21456 0.63391H13.9951L8.62458 19.9657H27.7474L33.1179 0.63391H37.8975L31.6685 23.0559Z" fill="white"/>
<path d="M86.2747 0.608484L92.3217 12.6343L79.61 24.657L86.2747 0.608484Z" fill="white"/>
<path d="M82.0357 0.608484L88.0782 12.6343L75.3613 24.657L82.0357 0.608484Z" fill="white"/>
</svg>
